M48
; DRILL file {KiCad 6.0.11-2627ca5db0~126~ubuntu22.04.1} date Wed 29 Nov 2023 16:22:22 GMT
; FORMAT={-:-/ absolute / inch / decimal}
; #@! TF.CreationDate,2023-11-29T16:22:22+00:00
; #@! TF.GenerationSoftware,Kicad,Pcbnew,6.0.11-2627ca5db0~126~ubuntu22.04.1
; #@! TF.FileFunction,Plated,1,2,PTH
FMAT,2
INCH
; #@! TA.AperFunction,Plated,PTH,ViaDrill
T1C0.0118
; #@! TA.AperFunction,Plated,PTH,ComponentDrill
T2C0.0295
; #@! TA.AperFunction,Plated,PTH,ComponentDrill
T3C0.0866
%
G90
G05
T1
X0.0264Y-0.3846
X0.0307Y-0.7642
X0.1094Y-0.624
X0.1402Y-0.2752
X0.2177Y-0.6102
X0.2189Y-0.5362
X0.25Y-0.2177
X0.2689Y-0.3469
X0.315Y-0.7087
X0.315Y-0.7874
X0.315Y-0.8661
X0.315Y-0.9449
X0.315Y-1.0236
X0.315Y-1.1024
X0.3653Y-0.6468
X0.3654Y-0.4972
X0.3906Y-0.0921
X0.3949Y-0.2791
X0.4492Y-0.0921
X0.563Y-0.8567
X0.5659Y-0.8959
X0.5886Y-0.2051
X0.6035Y-0.726
X0.6047Y-0.4142
X0.6299Y-1.1024
X0.6621Y-0.8077
X0.6854Y-0.5949
X0.7014Y-0.8087
X0.7016Y-0.4854
X0.7087Y-1.1024
X0.7386Y-0.6394
X0.7398Y-0.6787
X0.7447Y-0.8327
X0.7501Y-0.9029
X0.7768Y-0.9318
X0.7874Y-1.1024
X0.789Y-0.4697
X0.798Y-0.5945
X0.8209Y-0.1665
X0.8331Y-0.4728
X0.8351Y-0.2501
X0.8417Y-0.9961
X0.8606Y-0.5067
X0.8657Y-0.5508
X0.8669Y-0.3531
X0.8703Y-1.1024
X0.9142Y-0.7264
X0.9154Y-0.4146
X0.9217Y-0.8234
X0.9466Y-1.1024
X0.9728Y-0.8234
X0.9988Y-0.5146
X1.0311Y-0.4563
X1.0311Y-0.678
X1.063Y-0.0394
X1.063Y-0.1181
X1.0732Y-0.7217
X1.0941Y-0.5157
X1.0941Y-0.5945
X1.1417Y-0.0394
X1.1417Y-0.1181
X1.1417Y-1.1024
X1.1992Y-0.4059
X1.2035Y-0.7795
X1.2689Y-0.6476
X1.2795Y-0.5921
X1.3386Y-0.4921
X1.3386Y-0.5709
X1.3386Y-0.6496
X1.4173Y-0.4921
X1.4173Y-0.5709
X1.4173Y-0.6496
X1.4173Y-0.9055
X1.4425Y-0.9669
X1.4445Y-1.065
X1.4894Y-0.8335
X1.4961Y-0.4921
X1.4961Y-0.5709
X1.4961Y-0.6496
X1.4961Y-0.9055
X1.6142Y-0.1575
X1.6142Y-0.2362
X1.6929Y-0.1575
X1.6929Y-0.2362
T2
X0.1209Y-0.8701
X0.1209Y-0.9488
T3
X0.4724Y-1.0335
X1.2598Y-0.1083
T0
M30
