G04 #@! TF.GenerationSoftware,KiCad,Pcbnew,6.0.11-2627ca5db0~126~ubuntu22.04.1*
G04 #@! TF.CreationDate,2023-11-29T16:22:24+00:00*
G04 #@! TF.ProjectId,GeoLoc,47656f4c-6f63-42e6-9b69-6361645f7063,rev?*
G04 #@! TF.SameCoordinates,PX44794c0PY22243c0*
G04 #@! TF.FileFunction,Copper,L2,Bot*
G04 #@! TF.FilePolarity,Positive*
%FSLAX45Y45*%
G04 Gerber Fmt 4.5, Leading zero omitted, Abs format (unit mm)*
G04 Created by KiCad (PCBNEW 6.0.11-2627ca5db0~126~ubuntu22.04.1) date 2023-11-29 16:22:24*
%MOMM*%
%LPD*%
G01*
G04 APERTURE LIST*
G04 Aperture macros list*
%AMRoundRect*
0 Rectangle with rounded corners*
0 $1 Rounding radius*
0 $2 $3 $4 $5 $6 $7 $8 $9 X,Y pos of 4 corners*
0 Add a 4 corners polygon primitive as box body*
4,1,4,$2,$3,$4,$5,$6,$7,$8,$9,$2,$3,0*
0 Add four circle primitives for the rounded corners*
1,1,$1+$1,$2,$3*
1,1,$1+$1,$4,$5*
1,1,$1+$1,$6,$7*
1,1,$1+$1,$8,$9*
0 Add four rect primitives between the rounded corners*
20,1,$1+$1,$2,$3,$4,$5,0*
20,1,$1+$1,$4,$5,$6,$7,0*
20,1,$1+$1,$6,$7,$8,$9,0*
20,1,$1+$1,$8,$9,$2,$3,0*%
G04 Aperture macros list end*
G04 #@! TA.AperFunction,ComponentPad*
%ADD10RoundRect,0.250000X0.625000X-0.350000X0.625000X0.350000X-0.625000X0.350000X-0.625000X-0.350000X0*%
G04 #@! TD*
G04 #@! TA.AperFunction,ComponentPad*
%ADD11O,1.750000X1.200000*%
G04 #@! TD*
G04 #@! TA.AperFunction,ComponentPad*
%ADD12C,4.400000*%
G04 #@! TD*
G04 #@! TA.AperFunction,SMDPad,CuDef*
%ADD13R,1.380000X0.450000*%
G04 #@! TD*
G04 #@! TA.AperFunction,SMDPad,CuDef*
%ADD14R,0.900000X1.800000*%
G04 #@! TD*
G04 #@! TA.AperFunction,SMDPad,CuDef*
%ADD15R,1.300000X1.650000*%
G04 #@! TD*
G04 #@! TA.AperFunction,SMDPad,CuDef*
%ADD16R,1.550000X1.425000*%
G04 #@! TD*
G04 #@! TA.AperFunction,SMDPad,CuDef*
%ADD17R,0.900000X1.750000*%
G04 #@! TD*
G04 #@! TA.AperFunction,SMDPad,CuDef*
%ADD18C,2.000000*%
G04 #@! TD*
G04 #@! TA.AperFunction,ViaPad*
%ADD19C,0.400000*%
G04 #@! TD*
G04 #@! TA.AperFunction,Conductor*
%ADD20C,0.250000*%
G04 #@! TD*
G04 #@! TA.AperFunction,Conductor*
%ADD21C,0.300000*%
G04 #@! TD*
G04 APERTURE END LIST*
D10*
X307000Y-2410000D03*
D11*
X307000Y-2210000D03*
D12*
X1200000Y-2625000D03*
X3200000Y-275000D03*
D13*
X410000Y-1585000D03*
X410000Y-1520000D03*
X410000Y-1455000D03*
X410000Y-1390000D03*
X410000Y-1325000D03*
D14*
X94000Y-1570000D03*
D15*
X144000Y-1117500D03*
X144000Y-1792500D03*
D16*
X401500Y-1703750D03*
D17*
X94000Y-1342500D03*
D16*
X401500Y-1206250D03*
D18*
X4200000Y-200000D03*
X3900000Y-200000D03*
X3600000Y-200000D03*
X2500000Y-200000D03*
X2200000Y-204000D03*
D19*
X2900000Y-300000D03*
X2700000Y-300000D03*
X2700000Y-100000D03*
X800000Y-1800000D03*
X800000Y-2200000D03*
X800000Y-2000000D03*
X800000Y-2800000D03*
X800000Y-2400000D03*
X800000Y-2600000D03*
X3600000Y-2300000D03*
X3800000Y-2300000D03*
X3669000Y-2705000D03*
X3664000Y-2456000D03*
X1905304Y-2293388D03*
X1973100Y-2366830D03*
X67000Y-977000D03*
X78000Y-1941000D03*
X356000Y-699000D03*
X635000Y-553000D03*
X1141000Y-234000D03*
X992000Y-234000D03*
X1003000Y-709000D03*
X683000Y-881000D03*
X278000Y-1585000D03*
X928000Y-1263000D03*
X2726000Y-1833000D03*
X2322000Y-1845000D03*
X1536000Y-1052000D03*
X2325000Y-1053000D03*
X1533000Y-1844000D03*
X1741000Y-1511000D03*
X2779000Y-1310000D03*
X2779000Y-1510000D03*
X4100000Y-600000D03*
X4100000Y-400000D03*
X4300000Y-400000D03*
X4300000Y-600000D03*
X2900000Y-100000D03*
X2404305Y-2800000D03*
X2900000Y-2800000D03*
X1600000Y-2800000D03*
X2000000Y-2800000D03*
X2210604Y-2800000D03*
X1800000Y-2800000D03*
X3800000Y-1450000D03*
X3600000Y-1250000D03*
X3600000Y-1650000D03*
X3600000Y-1450000D03*
X3400000Y-1450000D03*
X3800000Y-1250000D03*
X3800000Y-1650000D03*
X3400000Y-1650000D03*
X3400000Y-1250000D03*
X2027000Y-1510000D03*
X1782000Y-1233000D03*
X3046000Y-1031000D03*
X2471000Y-2091350D03*
X3783000Y-2117000D03*
X2537000Y-1307000D03*
X2202000Y-897000D03*
X2138000Y-2530000D03*
X2341000Y-2091350D03*
X1430000Y-2176000D03*
X1879000Y-1724000D03*
X1437269Y-2275686D03*
X1876000Y-1624000D03*
X1891650Y-2115039D03*
X3057000Y-1980000D03*
X1681631Y-2051531D03*
X3250000Y-1504000D03*
X1781550Y-2054030D03*
X3223000Y-1645000D03*
X2619000Y-1722000D03*
X2619000Y-1159000D03*
X2116000Y-1201000D03*
X2004000Y-1193000D03*
X2121176Y-635364D03*
X1495000Y-521000D03*
X2085000Y-423000D03*
X552998Y-1550002D03*
X556000Y-1362000D03*
X927750Y-1642750D03*
X2199000Y-1399000D03*
X2186000Y-1287000D03*
D20*
X2199000Y-1399000D02*
X1171500Y-1399000D01*
X1171500Y-1399000D02*
X927750Y-1642750D01*
X1777320Y-1328684D02*
G75*
G02*
X1756000Y-1350000I-21320J4D01*
G01*
X1798632Y-1307366D02*
G75*
G03*
X1777316Y-1328684I-2J-21314D01*
G01*
X1015000Y-1350000D02*
X1756000Y-1350000D01*
X1837312Y-1328684D02*
G75*
G03*
X1816000Y-1307368I-21312J4D01*
G01*
X1858632Y-1349994D02*
G75*
G02*
X1837316Y-1328684I-2J21314D01*
G01*
X1837316Y-1328684D02*
X1837316Y-1328684D01*
X928000Y-1263000D02*
X1015000Y-1350000D01*
X1777316Y-1328684D02*
X1777316Y-1328684D01*
X1798632Y-1307368D02*
X1816000Y-1307368D01*
X1858632Y-1350000D02*
X1876000Y-1350000D01*
X1876000Y-1350000D02*
X2123000Y-1350000D01*
X2123000Y-1350000D02*
X2186000Y-1287000D01*
X2496000Y-603000D02*
X2202000Y-897000D01*
X3338421Y-603000D02*
X2496000Y-603000D01*
X3600000Y-341421D02*
X3338421Y-603000D01*
X3600000Y-200000D02*
X3600000Y-341421D01*
X3517550Y-2602450D02*
X3664000Y-2456000D01*
X2107990Y-2602450D02*
X3517550Y-2602450D01*
X1973100Y-2366830D02*
X1973100Y-2467560D01*
X1973100Y-2467560D02*
X2107990Y-2602450D01*
X1900650Y-2458679D02*
X2146971Y-2705000D01*
X2146971Y-2705000D02*
X3669000Y-2705000D01*
X1905304Y-2293388D02*
X1900650Y-2298042D01*
X1900650Y-2298042D02*
X1900650Y-2458679D01*
X2341000Y-2091350D02*
X2341000Y-2327000D01*
X2341000Y-2327000D02*
X2138000Y-2530000D01*
X3250000Y-1504000D02*
X2825000Y-1929000D01*
X1681631Y-2051489D02*
X1681631Y-2051531D01*
X2898238Y-1982900D02*
X2862238Y-2018900D01*
X2862238Y-2018900D02*
X1987789Y-2018900D01*
X1987789Y-2018900D02*
X1891650Y-2115039D01*
X1804120Y-1929000D02*
X1681631Y-2051489D01*
X2825000Y-1929000D02*
X1804120Y-1929000D01*
X1861630Y-1973950D02*
X1781550Y-2054030D01*
X3223000Y-1645000D02*
X2930050Y-1937950D01*
X3057000Y-1980000D02*
X3054100Y-1982900D01*
X3054100Y-1982900D02*
X2898238Y-1982900D01*
X2879619Y-1937950D02*
X2843619Y-1973950D01*
X2930050Y-1937950D02*
X2879619Y-1937950D01*
X2843619Y-1973950D02*
X1861630Y-1973950D01*
X1357550Y-2206010D02*
X1357550Y-2142450D01*
X1357550Y-2142450D02*
X1876000Y-1624000D01*
X1427226Y-2275686D02*
X1357550Y-2206010D01*
X1437269Y-2275686D02*
X1427226Y-2275686D01*
X1839569Y-1724000D02*
X1879000Y-1724000D01*
X1430000Y-2133569D02*
X1839569Y-1724000D01*
X1430000Y-2176000D02*
X1430000Y-2133569D01*
D21*
X683000Y-2034000D02*
X683000Y-881000D01*
X307000Y-2410000D02*
X683000Y-2034000D01*
X1003000Y-709000D02*
X1289000Y-423000D01*
X1289000Y-423000D02*
X2085000Y-423000D01*
D20*
X2652050Y-647950D02*
X3452050Y-647950D01*
X2537000Y-763000D02*
X2652050Y-647950D01*
X2537000Y-1307000D02*
X2537000Y-763000D01*
X3452050Y-647950D02*
X3900000Y-200000D01*
X2200000Y-666431D02*
X2200000Y-204000D01*
X2071050Y-795381D02*
X2200000Y-666431D01*
X2071050Y-1125950D02*
X2071050Y-795381D01*
X2004000Y-1193000D02*
X2071050Y-1125950D01*
X2116000Y-1201000D02*
X2116000Y-814000D01*
X2116000Y-814000D02*
X2497000Y-433000D01*
X2497000Y-433000D02*
X2497000Y-200000D01*
X1495000Y-521000D02*
X1993256Y-521000D01*
X2107620Y-635364D02*
X2121176Y-635364D01*
X1993256Y-521000D02*
X2107620Y-635364D01*
X522995Y-1520000D02*
X552998Y-1550002D01*
X410250Y-1520000D02*
X522995Y-1520000D01*
D21*
X410000Y-1585000D02*
X278000Y-1585000D01*
D20*
X556000Y-1400500D02*
X556000Y-1362000D01*
X501500Y-1455000D02*
X556000Y-1400500D01*
X410250Y-1455000D02*
X501500Y-1455000D01*
X3783000Y-2117000D02*
X2496650Y-2117000D01*
X2496650Y-2117000D02*
X2471000Y-2091350D01*
D21*
X2621950Y-1161950D02*
X2619000Y-1159000D01*
X2621950Y-1719050D02*
X2621950Y-1161950D01*
X2619000Y-1722000D02*
X2621950Y-1719050D01*
G04 #@! TA.AperFunction,Conductor*
G36*
X4298849Y-20289D02*
G01*
X4300084Y-20566D01*
X4301170Y-20313D01*
X4302285Y-20309D01*
X4302285Y-20412D01*
X4303274Y-20345D01*
X4314747Y-21415D01*
X4316665Y-21788D01*
X4329799Y-25720D01*
X4331607Y-26463D01*
X4338166Y-29950D01*
X4343713Y-32900D01*
X4345340Y-33983D01*
X4355944Y-42673D01*
X4357327Y-44056D01*
X4366017Y-54660D01*
X4367101Y-56287D01*
X4373537Y-68393D01*
X4374280Y-70201D01*
X4378212Y-83335D01*
X4378585Y-85253D01*
X4379642Y-96576D01*
X4379656Y-96735D01*
X4379699Y-97730D01*
X4379691Y-98759D01*
X4379435Y-99844D01*
X4379675Y-100932D01*
X4379675Y-100933D01*
X4379716Y-101118D01*
X4379947Y-103256D01*
X4378994Y-1150282D01*
X4377098Y-1156100D01*
X4372145Y-1159692D01*
X4368000Y-1160016D01*
X4368000Y-1160000D01*
X3881000Y-1160000D01*
X3881000Y-1760000D01*
X4368000Y-1760000D01*
X4368000Y-1760312D01*
X4371591Y-1760312D01*
X4376540Y-1763909D01*
X4378431Y-1769737D01*
X4377977Y-2268059D01*
X4376081Y-2273876D01*
X4371128Y-2277468D01*
X4368077Y-2277950D01*
X4006580Y-2277950D01*
X4004248Y-2277671D01*
X4003277Y-2277436D01*
X4003206Y-2277435D01*
X4002680Y-2277550D01*
X4002278Y-2277581D01*
X3976193Y-2278922D01*
X3949554Y-2283608D01*
X3949265Y-2283697D01*
X3949264Y-2283697D01*
X3932223Y-2288910D01*
X3923690Y-2291521D01*
X3923413Y-2291644D01*
X3923413Y-2291644D01*
X3899267Y-2302416D01*
X3898989Y-2302540D01*
X3890030Y-2307940D01*
X3879358Y-2314372D01*
X3875824Y-2316502D01*
X3874906Y-2317222D01*
X3856726Y-2331482D01*
X3854542Y-2333195D01*
X3835465Y-2352368D01*
X3818878Y-2373733D01*
X3805033Y-2396968D01*
X3794137Y-2421723D01*
X3793529Y-2423746D01*
X3787084Y-2445196D01*
X3786353Y-2447627D01*
X3786302Y-2447927D01*
X3786302Y-2447927D01*
X3785247Y-2454106D01*
X3781801Y-2474288D01*
X3781787Y-2474591D01*
X3781787Y-2474592D01*
X3780595Y-2500264D01*
X3780563Y-2500706D01*
X3780448Y-2501237D01*
X3780449Y-2501308D01*
X3780581Y-2501850D01*
X3780581Y-2501851D01*
X3780659Y-2502168D01*
X3780941Y-2504540D01*
X3780032Y-2867100D01*
X3780025Y-2870075D01*
X3778120Y-2875889D01*
X3773161Y-2879473D01*
X3770125Y-2879950D01*
X103314Y-2879950D01*
X101151Y-2879711D01*
X101126Y-2879705D01*
X99916Y-2879434D01*
X98830Y-2879687D01*
X97715Y-2879691D01*
X97715Y-2879588D01*
X96726Y-2879655D01*
X85253Y-2878585D01*
X83335Y-2878212D01*
X70201Y-2874280D01*
X68393Y-2873537D01*
X56287Y-2867100D01*
X54660Y-2866017D01*
X44056Y-2857327D01*
X42673Y-2855944D01*
X33983Y-2845340D01*
X32900Y-2843713D01*
X26463Y-2831607D01*
X25720Y-2829799D01*
X21788Y-2816665D01*
X21415Y-2814746D01*
X20344Y-2803265D01*
X20301Y-2802270D01*
X20309Y-2801241D01*
X20565Y-2800156D01*
X20325Y-2799067D01*
X20325Y-2799067D01*
X20282Y-2798868D01*
X20050Y-2796740D01*
X20050Y-2450383D01*
X199450Y-2450383D01*
X199472Y-2450614D01*
X199472Y-2450615D01*
X199654Y-2452546D01*
X199748Y-2453537D01*
X204237Y-2466318D01*
X204676Y-2466914D01*
X204676Y-2466914D01*
X211845Y-2476619D01*
X212285Y-2477215D01*
X223182Y-2485263D01*
X235963Y-2489752D01*
X236564Y-2489809D01*
X236564Y-2489809D01*
X238885Y-2490028D01*
X238886Y-2490028D01*
X239117Y-2490050D01*
X374883Y-2490050D01*
X375113Y-2490028D01*
X375114Y-2490028D01*
X377436Y-2489809D01*
X377436Y-2489809D01*
X378037Y-2489752D01*
X390818Y-2485263D01*
X401715Y-2477215D01*
X402155Y-2476619D01*
X409324Y-2466914D01*
X409324Y-2466914D01*
X409763Y-2466318D01*
X414252Y-2453537D01*
X414346Y-2452546D01*
X414528Y-2450615D01*
X414528Y-2450614D01*
X414550Y-2450383D01*
X414550Y-2369617D01*
X414252Y-2366463D01*
X412639Y-2361870D01*
X412495Y-2355753D01*
X414979Y-2351589D01*
X557678Y-2208891D01*
X1324624Y-2208891D01*
X1324848Y-2209727D01*
X1325630Y-2212645D01*
X1325817Y-2213488D01*
X1326491Y-2217314D01*
X1326924Y-2218064D01*
X1327124Y-2218613D01*
X1327370Y-2219141D01*
X1327595Y-2219978D01*
X1329220Y-2222299D01*
X1329823Y-2223161D01*
X1330287Y-2223889D01*
X1332231Y-2227255D01*
X1333616Y-2228418D01*
X1335207Y-2229753D01*
X1335844Y-2230336D01*
X1402899Y-2297391D01*
X1403482Y-2298028D01*
X1403619Y-2298191D01*
X1404045Y-2298737D01*
X1404110Y-2298825D01*
X1404464Y-2299520D01*
X1413434Y-2308491D01*
X1414128Y-2308844D01*
X1414128Y-2308844D01*
X1423300Y-2313517D01*
X1424738Y-2314250D01*
X1425508Y-2314372D01*
X1425508Y-2314372D01*
X1436499Y-2316113D01*
X1437269Y-2316235D01*
X1438038Y-2316113D01*
X1449030Y-2314372D01*
X1449030Y-2314372D01*
X1449799Y-2314250D01*
X1451237Y-2313517D01*
X1460409Y-2308844D01*
X1460409Y-2308844D01*
X1461103Y-2308491D01*
X1470074Y-2299520D01*
X1470492Y-2298699D01*
X1475480Y-2288910D01*
X1475480Y-2288910D01*
X1475833Y-2288216D01*
X1477818Y-2275686D01*
X1475833Y-2263155D01*
X1474803Y-2261134D01*
X1470427Y-2252545D01*
X1470427Y-2252545D01*
X1470074Y-2251851D01*
X1461103Y-2242881D01*
X1460409Y-2242527D01*
X1460409Y-2242527D01*
X1450493Y-2237475D01*
X1450493Y-2237475D01*
X1449799Y-2237121D01*
X1449030Y-2236999D01*
X1449030Y-2236999D01*
X1438038Y-2235258D01*
X1437269Y-2235136D01*
X1437270Y-2235129D01*
X1431848Y-2233368D01*
X1428251Y-2228418D01*
X1428251Y-2222299D01*
X1431848Y-2217349D01*
X1436118Y-2215580D01*
X1441761Y-2214687D01*
X1441761Y-2214687D01*
X1442530Y-2214565D01*
X1443224Y-2214211D01*
X1453140Y-2209159D01*
X1453140Y-2209159D01*
X1453834Y-2208805D01*
X1462805Y-2199834D01*
X1468565Y-2188530D01*
X1470549Y-2176000D01*
X1468565Y-2163470D01*
X1468211Y-2162776D01*
X1468211Y-2162775D01*
X1464599Y-2155687D01*
X1464258Y-2155018D01*
X1463301Y-2148975D01*
X1466079Y-2143523D01*
X1558071Y-2051531D01*
X1641082Y-2051531D01*
X1641204Y-2052301D01*
X1642768Y-2062174D01*
X1643066Y-2064061D01*
X1643420Y-2064755D01*
X1643420Y-2064755D01*
X1644827Y-2067516D01*
X1648826Y-2075365D01*
X1657797Y-2084336D01*
X1658490Y-2084689D01*
X1658491Y-2084689D01*
X1661621Y-2086284D01*
X1669101Y-2090095D01*
X1669870Y-2090217D01*
X1669870Y-2090217D01*
X1680861Y-2091958D01*
X1681631Y-2092080D01*
X1682401Y-2091958D01*
X1693392Y-2090217D01*
X1693392Y-2090217D01*
X1694161Y-2090095D01*
X1701641Y-2086284D01*
X1704771Y-2084689D01*
X1704771Y-2084689D01*
X1705465Y-2084336D01*
X1714436Y-2075365D01*
X1720196Y-2064061D01*
X1720653Y-2061174D01*
X1723431Y-2055722D01*
X1725091Y-2054062D01*
X1730542Y-2051284D01*
X1736586Y-2052241D01*
X1740912Y-2056568D01*
X1741869Y-2059514D01*
X1742645Y-2064409D01*
X1742985Y-2066560D01*
X1743339Y-2067254D01*
X1743339Y-2067254D01*
X1748037Y-2076475D01*
X1748745Y-2077864D01*
X1757716Y-2086835D01*
X1758409Y-2087188D01*
X1758410Y-2087188D01*
X1766577Y-2091350D01*
X1769020Y-2092594D01*
X1769789Y-2092716D01*
X1769789Y-2092716D01*
X1780780Y-2094457D01*
X1781550Y-2094579D01*
X1782320Y-2094457D01*
X1793311Y-2092716D01*
X1793311Y-2092716D01*
X1794080Y-2092594D01*
X1796522Y-2091350D01*
X1804690Y-2087188D01*
X1804690Y-2087188D01*
X1805384Y-2086835D01*
X1814355Y-2077864D01*
X1815063Y-2076475D01*
X1819761Y-2067254D01*
X1819761Y-2067254D01*
X1820115Y-2066560D01*
X1820564Y-2063722D01*
X1823342Y-2058271D01*
X1872213Y-2009400D01*
X1877665Y-2006622D01*
X1879213Y-2006500D01*
X1930255Y-2006500D01*
X1936075Y-2008391D01*
X1939671Y-2013341D01*
X1939671Y-2019459D01*
X1937256Y-2023400D01*
X1887409Y-2073247D01*
X1881957Y-2076025D01*
X1879889Y-2076353D01*
X1879889Y-2076353D01*
X1879119Y-2076475D01*
X1878425Y-2076828D01*
X1878425Y-2076828D01*
X1868509Y-2081881D01*
X1868509Y-2081881D01*
X1867816Y-2082234D01*
X1858845Y-2091205D01*
X1858491Y-2091899D01*
X1858491Y-2091899D01*
X1853439Y-2101815D01*
X1853085Y-2102509D01*
X1852963Y-2103278D01*
X1852963Y-2103278D01*
X1851222Y-2114270D01*
X1851101Y-2115039D01*
X1851222Y-2115809D01*
X1852077Y-2121205D01*
X1853085Y-2127570D01*
X1853439Y-2128264D01*
X1853439Y-2128264D01*
X1857286Y-2135815D01*
X1858845Y-2138874D01*
X1867816Y-2147844D01*
X1868509Y-2148198D01*
X1868509Y-2148198D01*
X1878425Y-2153250D01*
X1879119Y-2153604D01*
X1879889Y-2153726D01*
X1879889Y-2153726D01*
X1890880Y-2155467D01*
X1891650Y-2155589D01*
X1892419Y-2155467D01*
X1903411Y-2153726D01*
X1903411Y-2153726D01*
X1904180Y-2153604D01*
X1904874Y-2153250D01*
X1914790Y-2148198D01*
X1914790Y-2148198D01*
X1915484Y-2147844D01*
X1924455Y-2138874D01*
X1926013Y-2135815D01*
X1929861Y-2128264D01*
X1929861Y-2128264D01*
X1930214Y-2127570D01*
X1930664Y-2124732D01*
X1933442Y-2119280D01*
X1998372Y-2054350D01*
X2003824Y-2051572D01*
X2005372Y-2051450D01*
X2300588Y-2051450D01*
X2306407Y-2053341D01*
X2310004Y-2058291D01*
X2310004Y-2064409D01*
X2308656Y-2067055D01*
X2308195Y-2067516D01*
X2307841Y-2068210D01*
X2302922Y-2077864D01*
X2302435Y-2078820D01*
X2302314Y-2079589D01*
X2302314Y-2079589D01*
X2301166Y-2086835D01*
X2300451Y-2091350D01*
X2300573Y-2092120D01*
X2300651Y-2092615D01*
X2302435Y-2103881D01*
X2302789Y-2104575D01*
X2302789Y-2104575D01*
X2307371Y-2113567D01*
X2308450Y-2118062D01*
X2308450Y-2309417D01*
X2306559Y-2315236D01*
X2305550Y-2316417D01*
X2133759Y-2488208D01*
X2128308Y-2490986D01*
X2126239Y-2491314D01*
X2126239Y-2491314D01*
X2125470Y-2491435D01*
X2124776Y-2491789D01*
X2124776Y-2491789D01*
X2114860Y-2496841D01*
X2114860Y-2496842D01*
X2114166Y-2497195D01*
X2105195Y-2506166D01*
X2099435Y-2517470D01*
X2099314Y-2518239D01*
X2099314Y-2518239D01*
X2098319Y-2524516D01*
X2095541Y-2529968D01*
X2090090Y-2532746D01*
X2084047Y-2531789D01*
X2081541Y-2529968D01*
X2008550Y-2456977D01*
X2005772Y-2451525D01*
X2005650Y-2449976D01*
X2005650Y-2393542D01*
X2006729Y-2389047D01*
X2011311Y-2380055D01*
X2011311Y-2380055D01*
X2011665Y-2379361D01*
X2012556Y-2373733D01*
X2013527Y-2367600D01*
X2013649Y-2366830D01*
X2013501Y-2365894D01*
X2011786Y-2355069D01*
X2011786Y-2355069D01*
X2011665Y-2354300D01*
X2010802Y-2352608D01*
X2006259Y-2343690D01*
X2006258Y-2343690D01*
X2005905Y-2342996D01*
X1996934Y-2334025D01*
X1996240Y-2333672D01*
X1996240Y-2333672D01*
X1986324Y-2328619D01*
X1986324Y-2328619D01*
X1985630Y-2328266D01*
X1984861Y-2328144D01*
X1984861Y-2328144D01*
X1973870Y-2326403D01*
X1973100Y-2326281D01*
X1972330Y-2326403D01*
X1961339Y-2328144D01*
X1961339Y-2328144D01*
X1960570Y-2328266D01*
X1949266Y-2334025D01*
X1948836Y-2334455D01*
X1943100Y-2336319D01*
X1937281Y-2334428D01*
X1933684Y-2329478D01*
X1933200Y-2326419D01*
X1933200Y-2326232D01*
X1935091Y-2320413D01*
X1936100Y-2319232D01*
X1938109Y-2317222D01*
X1938520Y-2316417D01*
X1943515Y-2306612D01*
X1943515Y-2306612D01*
X1943869Y-2305918D01*
X1944396Y-2302591D01*
X1945732Y-2294158D01*
X1945853Y-2293388D01*
X1944319Y-2283697D01*
X1943991Y-2281627D01*
X1943991Y-2281627D01*
X1943869Y-2280858D01*
X1942875Y-2278906D01*
X1938463Y-2270248D01*
X1938463Y-2270247D01*
X1938109Y-2269554D01*
X1929138Y-2260583D01*
X1928445Y-2260229D01*
X1928445Y-2260229D01*
X1918529Y-2255177D01*
X1918529Y-2255177D01*
X1917835Y-2254823D01*
X1917065Y-2254701D01*
X1917065Y-2254701D01*
X1906074Y-2252961D01*
X1905304Y-2252839D01*
X1904535Y-2252961D01*
X1893543Y-2254701D01*
X1893543Y-2254701D01*
X1892774Y-2254823D01*
X1892080Y-2255177D01*
X1892080Y-2255177D01*
X1882164Y-2260229D01*
X1882164Y-2260229D01*
X1881470Y-2260583D01*
X1872499Y-2269554D01*
X1872146Y-2270247D01*
X1872146Y-2270248D01*
X1867734Y-2278906D01*
X1866740Y-2280858D01*
X1866618Y-2281627D01*
X1866618Y-2281627D01*
X1866290Y-2283697D01*
X1864755Y-2293388D01*
X1864877Y-2294158D01*
X1866213Y-2302591D01*
X1866740Y-2305918D01*
X1867093Y-2306612D01*
X1867334Y-2307354D01*
X1867240Y-2307384D01*
X1868100Y-2310965D01*
X1868100Y-2456825D01*
X1868062Y-2457688D01*
X1867724Y-2461560D01*
X1867948Y-2462396D01*
X1868730Y-2465314D01*
X1868917Y-2466157D01*
X1869199Y-2467761D01*
X1869591Y-2469983D01*
X1870024Y-2470733D01*
X1870224Y-2471282D01*
X1870470Y-2471810D01*
X1870695Y-2472647D01*
X1872751Y-2475584D01*
X1872923Y-2475830D01*
X1873387Y-2476558D01*
X1875331Y-2479924D01*
X1878307Y-2482422D01*
X1878944Y-2483005D01*
X2122644Y-2726706D01*
X2123228Y-2727342D01*
X2125726Y-2730319D01*
X2129092Y-2732263D01*
X2129820Y-2732727D01*
X2133003Y-2734955D01*
X2133840Y-2735180D01*
X2134368Y-2735426D01*
X2134917Y-2735626D01*
X2135667Y-2736059D01*
X2136519Y-2736209D01*
X2136520Y-2736209D01*
X2139493Y-2736733D01*
X2140336Y-2736920D01*
X2144091Y-2737926D01*
X2147962Y-2737588D01*
X2148825Y-2737550D01*
X3642288Y-2737550D01*
X3646783Y-2738629D01*
X3656470Y-2743565D01*
X3657239Y-2743687D01*
X3657239Y-2743687D01*
X3668230Y-2745427D01*
X3669000Y-2745549D01*
X3669770Y-2745427D01*
X3680761Y-2743687D01*
X3680761Y-2743687D01*
X3681530Y-2743565D01*
X3682224Y-2743211D01*
X3692140Y-2738159D01*
X3692140Y-2738159D01*
X3692834Y-2737805D01*
X3701805Y-2728834D01*
X3702890Y-2726706D01*
X3707211Y-2718224D01*
X3707211Y-2718224D01*
X3707565Y-2717530D01*
X3709549Y-2705000D01*
X3707565Y-2692470D01*
X3701805Y-2681166D01*
X3692834Y-2672195D01*
X3692140Y-2671842D01*
X3692140Y-2671841D01*
X3682224Y-2666789D01*
X3682224Y-2666789D01*
X3681530Y-2666435D01*
X3680761Y-2666314D01*
X3680761Y-2666314D01*
X3669770Y-2664573D01*
X3669000Y-2664451D01*
X3668230Y-2664573D01*
X3657239Y-2666314D01*
X3657239Y-2666314D01*
X3656470Y-2666435D01*
X3655776Y-2666789D01*
X3655776Y-2666789D01*
X3646783Y-2671371D01*
X3642288Y-2672450D01*
X2164555Y-2672450D01*
X2158736Y-2670559D01*
X2157554Y-2669550D01*
X2139904Y-2651900D01*
X2137127Y-2646449D01*
X2138084Y-2640406D01*
X2142410Y-2636079D01*
X2146905Y-2635000D01*
X3515697Y-2635000D01*
X3516559Y-2635038D01*
X3520431Y-2635376D01*
X3524185Y-2634370D01*
X3525028Y-2634183D01*
X3528002Y-2633659D01*
X3528002Y-2633659D01*
X3528854Y-2633509D01*
X3529604Y-2633076D01*
X3530153Y-2632876D01*
X3530682Y-2632630D01*
X3531518Y-2632405D01*
X3534701Y-2630177D01*
X3535429Y-2629713D01*
X3538795Y-2627769D01*
X3541293Y-2624793D01*
X3541876Y-2624156D01*
X3668241Y-2497792D01*
X3673692Y-2495014D01*
X3675761Y-2494687D01*
X3675761Y-2494686D01*
X3676530Y-2494565D01*
X3682672Y-2491435D01*
X3687140Y-2489159D01*
X3687140Y-2489159D01*
X3687834Y-2488805D01*
X3696805Y-2479834D01*
X3698342Y-2476817D01*
X3702211Y-2469224D01*
X3702211Y-2469224D01*
X3702565Y-2468530D01*
X3702915Y-2466318D01*
X3704427Y-2456770D01*
X3704549Y-2456000D01*
X3703270Y-2447927D01*
X3702686Y-2444239D01*
X3702686Y-2444239D01*
X3702565Y-2443470D01*
X3696805Y-2432166D01*
X3687834Y-2423195D01*
X3687140Y-2422842D01*
X3687140Y-2422841D01*
X3677224Y-2417789D01*
X3677224Y-2417789D01*
X3676530Y-2417435D01*
X3675761Y-2417314D01*
X3675761Y-2417314D01*
X3664770Y-2415573D01*
X3664000Y-2415451D01*
X3663230Y-2415573D01*
X3652239Y-2417314D01*
X3652239Y-2417314D01*
X3651470Y-2417435D01*
X3650776Y-2417789D01*
X3650776Y-2417789D01*
X3640860Y-2422841D01*
X3640859Y-2422842D01*
X3640166Y-2423195D01*
X3631195Y-2432166D01*
X3625435Y-2443470D01*
X3625314Y-2444239D01*
X3625313Y-2444239D01*
X3624986Y-2446308D01*
X3622208Y-2451759D01*
X3506967Y-2567000D01*
X3501515Y-2569778D01*
X3499967Y-2569900D01*
X2178412Y-2569900D01*
X2172593Y-2568009D01*
X2168996Y-2563059D01*
X2168996Y-2556941D01*
X2170345Y-2554295D01*
X2170805Y-2553834D01*
X2176565Y-2542530D01*
X2177014Y-2539692D01*
X2179792Y-2534241D01*
X2362706Y-2351327D01*
X2363343Y-2350743D01*
X2366319Y-2348246D01*
X2368263Y-2344879D01*
X2368727Y-2344151D01*
X2369266Y-2343381D01*
X2370955Y-2340968D01*
X2371180Y-2340132D01*
X2371426Y-2339604D01*
X2371626Y-2339055D01*
X2372059Y-2338305D01*
X2372734Y-2334478D01*
X2372921Y-2333635D01*
X2373702Y-2330717D01*
X2373926Y-2329881D01*
X2373588Y-2326009D01*
X2373550Y-2325146D01*
X2373550Y-2118062D01*
X2374629Y-2113567D01*
X2379211Y-2104575D01*
X2379211Y-2104575D01*
X2379565Y-2103881D01*
X2381349Y-2092615D01*
X2381427Y-2092120D01*
X2381549Y-2091350D01*
X2380834Y-2086835D01*
X2379687Y-2079589D01*
X2379687Y-2079589D01*
X2379565Y-2078820D01*
X2379078Y-2077864D01*
X2374159Y-2068210D01*
X2373805Y-2067516D01*
X2373376Y-2067087D01*
X2371512Y-2061350D01*
X2373403Y-2055531D01*
X2378353Y-2051935D01*
X2381412Y-2051450D01*
X2430588Y-2051450D01*
X2436407Y-2053341D01*
X2440004Y-2058291D01*
X2440004Y-2064409D01*
X2438656Y-2067055D01*
X2438195Y-2067516D01*
X2437841Y-2068210D01*
X2432922Y-2077864D01*
X2432435Y-2078820D01*
X2432314Y-2079589D01*
X2432314Y-2079589D01*
X2431166Y-2086835D01*
X2430451Y-2091350D01*
X2430573Y-2092120D01*
X2430651Y-2092615D01*
X2432435Y-2103881D01*
X2432789Y-2104575D01*
X2432789Y-2104575D01*
X2437729Y-2114270D01*
X2438195Y-2115184D01*
X2447166Y-2124155D01*
X2447860Y-2124509D01*
X2447860Y-2124509D01*
X2457715Y-2129530D01*
X2458470Y-2129915D01*
X2459239Y-2130037D01*
X2459239Y-2130037D01*
X2461308Y-2130364D01*
X2466759Y-2133142D01*
X2472323Y-2138706D01*
X2472906Y-2139342D01*
X2475404Y-2142319D01*
X2477489Y-2143523D01*
X2478770Y-2144263D01*
X2479499Y-2144727D01*
X2482681Y-2146955D01*
X2483518Y-2147180D01*
X2484047Y-2147426D01*
X2484595Y-2147626D01*
X2485345Y-2148059D01*
X2486198Y-2148209D01*
X2486198Y-2148209D01*
X2489171Y-2148733D01*
X2490015Y-2148920D01*
X2493769Y-2149926D01*
X2494632Y-2149851D01*
X2495157Y-2149805D01*
X2497640Y-2149588D01*
X2498503Y-2149550D01*
X3756288Y-2149550D01*
X3760783Y-2150629D01*
X3763799Y-2152166D01*
X3765928Y-2153250D01*
X3770470Y-2155565D01*
X3771239Y-2155687D01*
X3771239Y-2155687D01*
X3782230Y-2157427D01*
X3783000Y-2157549D01*
X3783770Y-2157427D01*
X3794761Y-2155687D01*
X3794761Y-2155687D01*
X3795530Y-2155565D01*
X3796603Y-2155018D01*
X3806140Y-2150159D01*
X3806140Y-2150159D01*
X3806834Y-2149805D01*
X3815805Y-2140834D01*
X3816804Y-2138874D01*
X3821211Y-2130224D01*
X3821211Y-2130224D01*
X3821565Y-2129530D01*
X3821875Y-2127570D01*
X3823427Y-2117770D01*
X3823549Y-2117000D01*
X3823361Y-2115809D01*
X3821686Y-2105239D01*
X3821686Y-2105239D01*
X3821565Y-2104470D01*
X3820212Y-2101815D01*
X3816159Y-2093860D01*
X3816158Y-2093859D01*
X3815805Y-2093166D01*
X3806834Y-2084195D01*
X3806140Y-2083841D01*
X3806140Y-2083841D01*
X3796224Y-2078789D01*
X3796224Y-2078789D01*
X3795530Y-2078435D01*
X3794761Y-2078313D01*
X3794761Y-2078313D01*
X3783770Y-2076573D01*
X3783000Y-2076451D01*
X3782230Y-2076573D01*
X3771239Y-2078313D01*
X3771239Y-2078313D01*
X3770470Y-2078435D01*
X3769776Y-2078789D01*
X3769776Y-2078789D01*
X3764413Y-2081521D01*
X3763708Y-2081881D01*
X3760783Y-2083371D01*
X3756288Y-2084450D01*
X2518459Y-2084450D01*
X2512640Y-2082559D01*
X2509826Y-2078687D01*
X2509565Y-2078820D01*
X2504159Y-2068210D01*
X2503805Y-2067516D01*
X2503376Y-2067087D01*
X2501512Y-2061350D01*
X2503403Y-2055531D01*
X2508353Y-2051935D01*
X2511412Y-2051450D01*
X2860384Y-2051450D01*
X2861247Y-2051488D01*
X2865118Y-2051827D01*
X2866068Y-2051572D01*
X2868873Y-2050821D01*
X2869716Y-2050634D01*
X2869930Y-2050596D01*
X2870288Y-2050533D01*
X2872689Y-2050109D01*
X2872690Y-2050109D01*
X2873542Y-2049959D01*
X2874292Y-2049526D01*
X2874841Y-2049326D01*
X2875369Y-2049080D01*
X2876206Y-2048856D01*
X2879389Y-2046627D01*
X2880117Y-2046163D01*
X2883483Y-2044220D01*
X2885981Y-2041243D01*
X2886564Y-2040606D01*
X2908821Y-2018350D01*
X2914272Y-2015572D01*
X2915821Y-2015450D01*
X3035981Y-2015450D01*
X3040475Y-2016529D01*
X3044470Y-2018565D01*
X3045239Y-2018686D01*
X3045239Y-2018686D01*
X3056230Y-2020427D01*
X3057000Y-2020549D01*
X3057770Y-2020427D01*
X3068761Y-2018686D01*
X3068761Y-2018686D01*
X3069530Y-2018565D01*
X3075613Y-2015465D01*
X3080140Y-2013159D01*
X3080140Y-2013158D01*
X3080834Y-2012805D01*
X3089805Y-2003834D01*
X3095565Y-1992530D01*
X3097549Y-1980000D01*
X3095565Y-1967470D01*
X3089805Y-1956166D01*
X3080834Y-1947195D01*
X3080140Y-1946841D01*
X3080140Y-1946841D01*
X3070224Y-1941789D01*
X3070224Y-1941789D01*
X3069530Y-1941435D01*
X3068761Y-1941313D01*
X3068761Y-1941313D01*
X3057770Y-1939573D01*
X3057000Y-1939451D01*
X3056230Y-1939573D01*
X3045239Y-1941313D01*
X3045239Y-1941313D01*
X3044470Y-1941435D01*
X3043776Y-1941789D01*
X3043776Y-1941789D01*
X3033860Y-1946841D01*
X3033859Y-1946841D01*
X3033166Y-1947195D01*
X3032615Y-1947746D01*
X3031984Y-1948204D01*
X3031835Y-1947998D01*
X3027458Y-1950228D01*
X3025910Y-1950350D01*
X2987583Y-1950350D01*
X2981764Y-1948459D01*
X2978168Y-1943509D01*
X2978168Y-1937391D01*
X2980583Y-1933450D01*
X3227241Y-1686792D01*
X3232692Y-1684014D01*
X3234761Y-1683686D01*
X3234761Y-1683686D01*
X3235530Y-1683565D01*
X3239646Y-1681468D01*
X3246140Y-1678159D01*
X3246140Y-1678158D01*
X3246834Y-1677805D01*
X3255805Y-1668834D01*
X3256951Y-1666584D01*
X3261211Y-1658224D01*
X3261211Y-1658224D01*
X3261565Y-1657530D01*
X3261811Y-1655974D01*
X3263427Y-1645770D01*
X3263549Y-1645000D01*
X3263427Y-1644230D01*
X3261686Y-1633239D01*
X3261686Y-1633239D01*
X3261565Y-1632470D01*
X3261211Y-1631776D01*
X3256159Y-1621860D01*
X3256158Y-1621859D01*
X3255805Y-1621166D01*
X3246834Y-1612195D01*
X3246140Y-1611841D01*
X3246140Y-1611841D01*
X3236224Y-1606789D01*
X3236224Y-1606789D01*
X3235530Y-1606435D01*
X3234761Y-1606313D01*
X3234761Y-1606313D01*
X3223770Y-1604573D01*
X3223000Y-1604451D01*
X3222230Y-1604573D01*
X3222230Y-1604573D01*
X3220516Y-1604844D01*
X3214473Y-1603887D01*
X3210146Y-1599560D01*
X3209189Y-1593517D01*
X3211967Y-1588066D01*
X3254241Y-1545792D01*
X3259692Y-1543014D01*
X3261761Y-1542686D01*
X3261761Y-1542686D01*
X3262530Y-1542565D01*
X3267466Y-1540050D01*
X3273140Y-1537159D01*
X3273140Y-1537158D01*
X3273834Y-1536805D01*
X3282805Y-1527834D01*
X3283654Y-1526168D01*
X3288211Y-1517224D01*
X3288211Y-1517224D01*
X3288565Y-1516530D01*
X3290549Y-1504000D01*
X3289284Y-1496011D01*
X3288686Y-1492239D01*
X3288686Y-1492239D01*
X3288565Y-1491470D01*
X3287651Y-1489677D01*
X3283159Y-1480860D01*
X3283158Y-1480859D01*
X3282805Y-1480166D01*
X3273834Y-1471195D01*
X3273140Y-1470841D01*
X3273140Y-1470841D01*
X3263224Y-1465789D01*
X3263224Y-1465789D01*
X3262530Y-1465435D01*
X3261761Y-1465313D01*
X3261761Y-1465313D01*
X3250770Y-1463573D01*
X3250000Y-1463451D01*
X3249230Y-1463573D01*
X3238239Y-1465313D01*
X3238239Y-1465313D01*
X3237470Y-1465435D01*
X3236776Y-1465789D01*
X3236776Y-1465789D01*
X3226860Y-1470841D01*
X3226859Y-1470841D01*
X3226166Y-1471195D01*
X3217195Y-1480166D01*
X3216841Y-1480859D01*
X3216841Y-1480860D01*
X3212349Y-1489677D01*
X3211435Y-1491470D01*
X3211314Y-1492239D01*
X3211313Y-1492239D01*
X3210986Y-1494308D01*
X3208208Y-1499759D01*
X2814417Y-1893550D01*
X2808965Y-1896328D01*
X2807417Y-1896450D01*
X1805972Y-1896450D01*
X1805109Y-1896412D01*
X1801239Y-1896074D01*
X1797486Y-1897079D01*
X1796643Y-1897266D01*
X1795724Y-1897428D01*
X1792816Y-1897941D01*
X1792065Y-1898374D01*
X1791517Y-1898574D01*
X1790988Y-1898820D01*
X1790152Y-1899045D01*
X1786968Y-1901274D01*
X1786241Y-1901737D01*
X1783624Y-1903248D01*
X1783624Y-1903248D01*
X1782875Y-1903681D01*
X1781432Y-1905400D01*
X1780377Y-1906656D01*
X1779794Y-1907293D01*
X1677340Y-2009747D01*
X1671889Y-2012525D01*
X1669870Y-2012844D01*
X1669870Y-2012844D01*
X1669101Y-2012966D01*
X1668407Y-2013320D01*
X1668407Y-2013320D01*
X1658491Y-2018372D01*
X1658490Y-2018372D01*
X1657797Y-2018726D01*
X1648826Y-2027697D01*
X1643066Y-2039000D01*
X1642944Y-2039770D01*
X1642944Y-2039770D01*
X1641382Y-2049633D01*
X1641082Y-2051531D01*
X1558071Y-2051531D01*
X1848510Y-1761091D01*
X1853962Y-1758314D01*
X1860005Y-1759271D01*
X1866470Y-1762565D01*
X1867239Y-1762686D01*
X1867239Y-1762686D01*
X1878230Y-1764427D01*
X1879000Y-1764549D01*
X1879770Y-1764427D01*
X1890761Y-1762686D01*
X1890761Y-1762686D01*
X1891530Y-1762565D01*
X1897151Y-1759700D01*
X1902140Y-1757159D01*
X1902140Y-1757158D01*
X1902834Y-1756805D01*
X1911805Y-1747834D01*
X1913178Y-1745140D01*
X1917211Y-1737224D01*
X1917211Y-1737224D01*
X1917565Y-1736530D01*
X1917771Y-1735224D01*
X1919427Y-1724770D01*
X1919549Y-1724000D01*
X1917565Y-1711470D01*
X1916621Y-1709617D01*
X1912159Y-1700860D01*
X1912158Y-1700859D01*
X1911805Y-1700166D01*
X1902834Y-1691195D01*
X1902140Y-1690841D01*
X1902140Y-1690841D01*
X1892224Y-1685789D01*
X1892224Y-1685789D01*
X1891530Y-1685435D01*
X1890761Y-1685313D01*
X1890761Y-1685313D01*
X1884017Y-1684245D01*
X1878565Y-1681468D01*
X1875788Y-1676016D01*
X1876745Y-1669973D01*
X1878565Y-1667467D01*
X1880241Y-1665792D01*
X1885692Y-1663014D01*
X1887761Y-1662686D01*
X1887761Y-1662686D01*
X1888530Y-1662565D01*
X1897048Y-1658224D01*
X1899140Y-1657159D01*
X1899140Y-1657158D01*
X1899834Y-1656805D01*
X1908805Y-1647834D01*
X1909235Y-1646991D01*
X1914211Y-1637224D01*
X1914211Y-1637224D01*
X1914564Y-1636530D01*
X1915442Y-1630989D01*
X1916427Y-1624770D01*
X1916549Y-1624000D01*
X1916225Y-1621955D01*
X1914686Y-1612239D01*
X1914686Y-1612239D01*
X1914564Y-1611470D01*
X1913548Y-1609475D01*
X1909158Y-1600860D01*
X1909158Y-1600859D01*
X1908805Y-1600166D01*
X1899834Y-1591195D01*
X1899140Y-1590841D01*
X1899140Y-1590841D01*
X1889224Y-1585789D01*
X1889224Y-1585789D01*
X1888530Y-1585435D01*
X1887761Y-1585313D01*
X1887761Y-1585313D01*
X1876769Y-1583573D01*
X1876000Y-1583451D01*
X1875230Y-1583573D01*
X1864239Y-1585313D01*
X1864239Y-1585313D01*
X1863469Y-1585435D01*
X1862775Y-1585789D01*
X1862775Y-1585789D01*
X1852859Y-1590841D01*
X1852859Y-1590841D01*
X1852166Y-1591195D01*
X1843195Y-1600166D01*
X1842841Y-1600859D01*
X1842841Y-1600860D01*
X1838452Y-1609475D01*
X1837435Y-1611470D01*
X1837313Y-1612239D01*
X1837313Y-1612239D01*
X1836986Y-1614308D01*
X1834208Y-1619759D01*
X1335844Y-2118123D01*
X1335208Y-2118707D01*
X1332231Y-2121205D01*
X1330527Y-2124155D01*
X1330287Y-2124571D01*
X1329823Y-2125299D01*
X1327595Y-2128482D01*
X1327370Y-2129318D01*
X1327124Y-2129847D01*
X1326924Y-2130396D01*
X1326491Y-2131146D01*
X1326341Y-2131998D01*
X1326341Y-2131998D01*
X1325817Y-2134972D01*
X1325630Y-2135815D01*
X1324624Y-2139569D01*
X1324699Y-2140432D01*
X1324962Y-2143441D01*
X1325000Y-2144303D01*
X1325000Y-2204156D01*
X1324962Y-2205019D01*
X1324624Y-2208891D01*
X557678Y-2208891D01*
X704394Y-2062174D01*
X706024Y-2060858D01*
X706227Y-2060727D01*
X706228Y-2060726D01*
X706915Y-2060282D01*
X708898Y-2057767D01*
X709290Y-2057326D01*
X709290Y-2057326D01*
X709555Y-2057013D01*
X709843Y-2056725D01*
X710904Y-2055240D01*
X711183Y-2054868D01*
X713633Y-2051761D01*
X713633Y-2051761D01*
X714139Y-2051119D01*
X714396Y-2050388D01*
X714460Y-2050264D01*
X714911Y-2049633D01*
X716279Y-2045058D01*
X716423Y-2044615D01*
X717799Y-2040697D01*
X717799Y-2040696D01*
X718005Y-2040109D01*
X718050Y-2039596D01*
X718050Y-2039382D01*
X718057Y-2039210D01*
X718069Y-2039074D01*
X718254Y-2038454D01*
X718058Y-2033445D01*
X718050Y-2033056D01*
X718050Y-1642750D01*
X887201Y-1642750D01*
X887323Y-1643520D01*
X888093Y-1648385D01*
X889185Y-1655280D01*
X889539Y-1655974D01*
X889539Y-1655974D01*
X894541Y-1665792D01*
X894945Y-1666584D01*
X903916Y-1675555D01*
X904609Y-1675908D01*
X904610Y-1675909D01*
X909026Y-1678159D01*
X915220Y-1681315D01*
X915989Y-1681436D01*
X915989Y-1681436D01*
X926980Y-1683177D01*
X927750Y-1683299D01*
X928520Y-1683177D01*
X939511Y-1681436D01*
X939511Y-1681436D01*
X940280Y-1681315D01*
X946474Y-1678159D01*
X950890Y-1675909D01*
X950890Y-1675908D01*
X951584Y-1675555D01*
X960555Y-1666584D01*
X960959Y-1665792D01*
X965961Y-1655974D01*
X965961Y-1655974D01*
X966315Y-1655280D01*
X966764Y-1652442D01*
X969542Y-1646991D01*
X1182083Y-1434450D01*
X1187535Y-1431672D01*
X1189083Y-1431550D01*
X2172289Y-1431550D01*
X2176783Y-1432629D01*
X2186470Y-1437565D01*
X2187239Y-1437686D01*
X2187239Y-1437686D01*
X2198230Y-1439427D01*
X2199000Y-1439549D01*
X2199770Y-1439427D01*
X2210761Y-1437686D01*
X2210761Y-1437686D01*
X2211530Y-1437565D01*
X2212224Y-1437211D01*
X2222140Y-1432159D01*
X2222141Y-1432158D01*
X2222834Y-1431805D01*
X2231805Y-1422834D01*
X2232360Y-1421745D01*
X2237211Y-1412224D01*
X2237211Y-1412224D01*
X2237565Y-1411530D01*
X2238992Y-1402518D01*
X2239427Y-1399770D01*
X2239549Y-1399000D01*
X2237565Y-1386470D01*
X2236531Y-1384441D01*
X2232159Y-1375860D01*
X2232159Y-1375860D01*
X2231805Y-1375166D01*
X2222834Y-1366195D01*
X2222141Y-1365842D01*
X2222140Y-1365841D01*
X2212224Y-1360789D01*
X2212224Y-1360789D01*
X2211530Y-1360435D01*
X2210761Y-1360314D01*
X2210761Y-1360314D01*
X2199770Y-1358573D01*
X2199000Y-1358451D01*
X2198230Y-1358573D01*
X2187239Y-1360314D01*
X2187239Y-1360314D01*
X2186470Y-1360435D01*
X2185776Y-1360789D01*
X2185776Y-1360789D01*
X2185336Y-1361013D01*
X2179293Y-1361970D01*
X2173841Y-1359193D01*
X2171063Y-1353741D01*
X2172020Y-1347698D01*
X2173841Y-1345192D01*
X2190241Y-1328792D01*
X2195692Y-1326014D01*
X2197761Y-1325687D01*
X2197761Y-1325686D01*
X2198530Y-1325565D01*
X2202709Y-1323435D01*
X2209140Y-1320159D01*
X2209141Y-1320159D01*
X2209834Y-1319805D01*
X2218805Y-1310834D01*
X2220367Y-1307770D01*
X2224211Y-1300224D01*
X2224211Y-1300224D01*
X2224565Y-1299530D01*
X2225099Y-1296159D01*
X2226427Y-1287770D01*
X2226549Y-1287000D01*
X2225942Y-1283166D01*
X2224687Y-1275239D01*
X2224687Y-1275239D01*
X2224565Y-1274470D01*
X2218805Y-1263166D01*
X2209834Y-1254195D01*
X2209141Y-1253842D01*
X2209140Y-1253841D01*
X2199224Y-1248789D01*
X2199224Y-1248789D01*
X2198530Y-1248435D01*
X2197761Y-1248314D01*
X2197761Y-1248314D01*
X2186770Y-1246573D01*
X2186000Y-1246451D01*
X2185230Y-1246573D01*
X2174239Y-1248314D01*
X2174239Y-1248314D01*
X2173470Y-1248435D01*
X2172776Y-1248789D01*
X2172776Y-1248789D01*
X2162860Y-1253841D01*
X2162860Y-1253842D01*
X2162166Y-1254195D01*
X2153195Y-1263166D01*
X2147435Y-1274470D01*
X2147314Y-1275239D01*
X2147314Y-1275239D01*
X2146986Y-1277308D01*
X2144208Y-1282759D01*
X2112417Y-1314550D01*
X2106965Y-1317328D01*
X2105417Y-1317450D01*
X1876159Y-1317450D01*
X1870340Y-1315559D01*
X1866814Y-1310818D01*
X1865209Y-1306230D01*
X1864838Y-1305169D01*
X1864541Y-1304696D01*
X1862352Y-1301211D01*
X1858381Y-1294890D01*
X1849798Y-1286306D01*
X1839520Y-1279847D01*
X1838996Y-1279663D01*
X1838995Y-1279663D01*
X1832265Y-1277308D01*
X1828063Y-1275837D01*
X1827510Y-1275775D01*
X1827510Y-1275775D01*
X1818842Y-1274798D01*
X1818231Y-1274710D01*
X1816853Y-1274467D01*
X1816853Y-1274467D01*
X1816000Y-1274316D01*
X1815147Y-1274467D01*
X1815147Y-1274467D01*
X1814005Y-1274668D01*
X1812286Y-1274818D01*
X1802347Y-1274818D01*
X1800627Y-1274668D01*
X1799984Y-1274554D01*
X1799487Y-1274467D01*
X1799487Y-1274467D01*
X1798634Y-1274316D01*
X1796442Y-1274703D01*
X1795833Y-1274790D01*
X1792981Y-1275112D01*
X1787123Y-1275771D01*
X1787123Y-1275771D01*
X1786570Y-1275834D01*
X1782357Y-1277308D01*
X1775636Y-1279659D01*
X1775636Y-1279659D01*
X1775111Y-1279843D01*
X1770229Y-1282911D01*
X1765303Y-1286006D01*
X1765303Y-1286006D01*
X1764832Y-1286302D01*
X1756248Y-1294887D01*
X1749790Y-1305167D01*
X1749607Y-1305692D01*
X1749607Y-1305692D01*
X1747814Y-1310819D01*
X1744108Y-1315687D01*
X1738469Y-1317450D01*
X1032583Y-1317450D01*
X1026764Y-1315559D01*
X1025583Y-1314550D01*
X969792Y-1258759D01*
X967014Y-1253308D01*
X966686Y-1251239D01*
X966686Y-1251239D01*
X966565Y-1250470D01*
X960805Y-1239166D01*
X951834Y-1230195D01*
X951140Y-1229842D01*
X951140Y-1229841D01*
X941224Y-1224789D01*
X941224Y-1224789D01*
X940530Y-1224435D01*
X939761Y-1224314D01*
X939761Y-1224314D01*
X928770Y-1222573D01*
X928000Y-1222451D01*
X927230Y-1222573D01*
X916239Y-1224314D01*
X916239Y-1224314D01*
X915470Y-1224435D01*
X914776Y-1224789D01*
X914776Y-1224789D01*
X904860Y-1229841D01*
X904859Y-1229842D01*
X904166Y-1230195D01*
X895195Y-1239166D01*
X889435Y-1250470D01*
X889313Y-1251239D01*
X889313Y-1251239D01*
X888483Y-1256485D01*
X887451Y-1263000D01*
X887573Y-1263770D01*
X889304Y-1274702D01*
X889435Y-1275530D01*
X889789Y-1276224D01*
X889789Y-1276224D01*
X894150Y-1284783D01*
X895195Y-1286834D01*
X904166Y-1295805D01*
X904859Y-1296159D01*
X904860Y-1296159D01*
X912839Y-1300224D01*
X915470Y-1301565D01*
X916239Y-1301686D01*
X916239Y-1301687D01*
X918308Y-1302014D01*
X923759Y-1304792D01*
X990673Y-1371706D01*
X991256Y-1372342D01*
X993754Y-1375319D01*
X997120Y-1377263D01*
X997849Y-1377727D01*
X1001032Y-1379955D01*
X1001868Y-1380180D01*
X1002397Y-1380426D01*
X1002946Y-1380626D01*
X1003695Y-1381059D01*
X1004548Y-1381209D01*
X1004548Y-1381209D01*
X1007522Y-1381733D01*
X1008365Y-1381920D01*
X1012119Y-1382926D01*
X1015991Y-1382588D01*
X1016854Y-1382550D01*
X1118017Y-1382550D01*
X1123836Y-1384441D01*
X1127432Y-1389391D01*
X1127432Y-1395509D01*
X1125017Y-1399450D01*
X923509Y-1600958D01*
X918058Y-1603736D01*
X915989Y-1604063D01*
X915989Y-1604064D01*
X915220Y-1604185D01*
X914526Y-1604539D01*
X914526Y-1604539D01*
X904610Y-1609591D01*
X904609Y-1609591D01*
X903916Y-1609945D01*
X894945Y-1618916D01*
X894591Y-1619609D01*
X894591Y-1619610D01*
X891041Y-1626577D01*
X889185Y-1630220D01*
X889063Y-1630989D01*
X889063Y-1630989D01*
X887323Y-1641980D01*
X887201Y-1642750D01*
X718050Y-1642750D01*
X718050Y-902805D01*
X719129Y-898310D01*
X719797Y-897000D01*
X721565Y-893530D01*
X723549Y-881000D01*
X722440Y-873996D01*
X721686Y-869239D01*
X721686Y-869239D01*
X721565Y-868470D01*
X715805Y-857166D01*
X706834Y-848195D01*
X706140Y-847841D01*
X706140Y-847841D01*
X696224Y-842789D01*
X696224Y-842789D01*
X695530Y-842435D01*
X694761Y-842313D01*
X694761Y-842313D01*
X683770Y-840573D01*
X683000Y-840451D01*
X682230Y-840573D01*
X671239Y-842313D01*
X671239Y-842313D01*
X670470Y-842435D01*
X669776Y-842789D01*
X669776Y-842789D01*
X659860Y-847841D01*
X659860Y-847841D01*
X659166Y-848195D01*
X650195Y-857166D01*
X644435Y-868470D01*
X644314Y-869239D01*
X644314Y-869239D01*
X643560Y-873996D01*
X642451Y-881000D01*
X644435Y-893530D01*
X646203Y-897000D01*
X646871Y-898310D01*
X647950Y-902805D01*
X647950Y-2015381D01*
X646059Y-2021200D01*
X645050Y-2022381D01*
X340381Y-2327050D01*
X334930Y-2329828D01*
X333381Y-2329950D01*
X239117Y-2329950D01*
X238886Y-2329972D01*
X238885Y-2329972D01*
X236564Y-2330191D01*
X236564Y-2330191D01*
X235963Y-2330248D01*
X223182Y-2334737D01*
X222586Y-2335176D01*
X222586Y-2335176D01*
X212881Y-2342345D01*
X212285Y-2342785D01*
X211845Y-2343381D01*
X206201Y-2351021D01*
X204237Y-2353682D01*
X199748Y-2366463D01*
X199450Y-2369617D01*
X199450Y-2450383D01*
X20050Y-2450383D01*
X20050Y-1585000D01*
X237451Y-1585000D01*
X237573Y-1585770D01*
X238330Y-1590551D01*
X239435Y-1597530D01*
X239789Y-1598224D01*
X239789Y-1598224D01*
X243006Y-1604539D01*
X245195Y-1608834D01*
X254166Y-1617805D01*
X254859Y-1618158D01*
X254860Y-1618159D01*
X262283Y-1621941D01*
X265470Y-1623565D01*
X266239Y-1623686D01*
X266239Y-1623686D01*
X277230Y-1625427D01*
X278000Y-1625549D01*
X278770Y-1625427D01*
X289761Y-1623686D01*
X289761Y-1623686D01*
X290530Y-1623565D01*
X295311Y-1621129D01*
X299805Y-1620050D01*
X320808Y-1620050D01*
X326510Y-1621903D01*
X326545Y-1621955D01*
X333177Y-1626387D01*
X334133Y-1626577D01*
X334133Y-1626577D01*
X336401Y-1627028D01*
X339025Y-1627550D01*
X480975Y-1627550D01*
X483599Y-1627028D01*
X485867Y-1626577D01*
X485867Y-1626577D01*
X486823Y-1626387D01*
X493455Y-1621955D01*
X497887Y-1615323D01*
X499050Y-1609475D01*
X499050Y-1573578D01*
X500941Y-1567759D01*
X505891Y-1564163D01*
X512009Y-1564163D01*
X516959Y-1567759D01*
X517771Y-1569084D01*
X519839Y-1573142D01*
X519839Y-1573142D01*
X520193Y-1573836D01*
X529164Y-1582807D01*
X529857Y-1583161D01*
X529857Y-1583161D01*
X539484Y-1588066D01*
X540467Y-1588567D01*
X541237Y-1588689D01*
X541237Y-1588689D01*
X552228Y-1590430D01*
X552998Y-1590551D01*
X553767Y-1590430D01*
X564759Y-1588689D01*
X564759Y-1588689D01*
X565528Y-1588567D01*
X566512Y-1588066D01*
X576138Y-1583161D01*
X576138Y-1583161D01*
X576832Y-1582807D01*
X585803Y-1573836D01*
X586157Y-1573142D01*
X591209Y-1563227D01*
X591209Y-1563227D01*
X591562Y-1562533D01*
X593547Y-1550002D01*
X592880Y-1545792D01*
X591684Y-1538241D01*
X591684Y-1538241D01*
X591562Y-1537472D01*
X591209Y-1536778D01*
X586156Y-1526862D01*
X586156Y-1526862D01*
X585803Y-1526168D01*
X576832Y-1517197D01*
X576138Y-1516844D01*
X576138Y-1516844D01*
X566222Y-1511791D01*
X566222Y-1511791D01*
X565528Y-1511438D01*
X564759Y-1511316D01*
X564759Y-1511316D01*
X562690Y-1510988D01*
X557239Y-1508210D01*
X547322Y-1498294D01*
X546739Y-1497657D01*
X545357Y-1496011D01*
X544241Y-1494681D01*
X540875Y-1492737D01*
X540147Y-1492273D01*
X539901Y-1492101D01*
X536964Y-1490045D01*
X536127Y-1489820D01*
X535599Y-1489574D01*
X535050Y-1489374D01*
X534300Y-1488941D01*
X533554Y-1488810D01*
X528781Y-1485080D01*
X527095Y-1479199D01*
X529188Y-1473449D01*
X529989Y-1472544D01*
X577707Y-1424826D01*
X578342Y-1424243D01*
X581319Y-1421745D01*
X583263Y-1418379D01*
X583727Y-1417651D01*
X583831Y-1417503D01*
X585955Y-1414468D01*
X586180Y-1413632D01*
X586426Y-1413103D01*
X586626Y-1412555D01*
X587059Y-1411804D01*
X587734Y-1407977D01*
X587921Y-1407134D01*
X588926Y-1403381D01*
X588588Y-1399510D01*
X588550Y-1398647D01*
X588550Y-1388712D01*
X589629Y-1384217D01*
X594211Y-1375224D01*
X594211Y-1375224D01*
X594565Y-1374530D01*
X596549Y-1362000D01*
X596282Y-1360314D01*
X594687Y-1350239D01*
X594687Y-1350239D01*
X594565Y-1349470D01*
X589820Y-1340159D01*
X589159Y-1338860D01*
X589159Y-1338860D01*
X588805Y-1338166D01*
X579834Y-1329195D01*
X579141Y-1328842D01*
X579140Y-1328841D01*
X569224Y-1323789D01*
X569224Y-1323789D01*
X568530Y-1323435D01*
X567761Y-1323314D01*
X567761Y-1323314D01*
X556770Y-1321573D01*
X556000Y-1321451D01*
X555230Y-1321573D01*
X544239Y-1323314D01*
X544239Y-1323314D01*
X543470Y-1323435D01*
X542776Y-1323789D01*
X542776Y-1323789D01*
X532860Y-1328841D01*
X532860Y-1328842D01*
X532166Y-1329195D01*
X523195Y-1338166D01*
X522841Y-1338860D01*
X522841Y-1338860D01*
X522180Y-1340159D01*
X517435Y-1349470D01*
X517313Y-1350239D01*
X517313Y-1350239D01*
X515718Y-1360314D01*
X515451Y-1362000D01*
X517435Y-1374530D01*
X517789Y-1375224D01*
X517789Y-1375225D01*
X520415Y-1380378D01*
X521372Y-1386421D01*
X518594Y-1391873D01*
X498448Y-1412019D01*
X492996Y-1414797D01*
X487659Y-1414165D01*
X487634Y-1414155D01*
X486823Y-1413613D01*
X480975Y-1412450D01*
X339025Y-1412450D01*
X336401Y-1412972D01*
X334133Y-1413423D01*
X334133Y-1413423D01*
X333177Y-1413613D01*
X326545Y-1418045D01*
X322113Y-1424677D01*
X320950Y-1430525D01*
X320950Y-1479475D01*
X321118Y-1480319D01*
X322113Y-1485323D01*
X321784Y-1485389D01*
X322120Y-1489666D01*
X322113Y-1489677D01*
X320950Y-1495525D01*
X320950Y-1540050D01*
X319059Y-1545869D01*
X314109Y-1549465D01*
X311050Y-1549950D01*
X299805Y-1549950D01*
X295311Y-1548871D01*
X291224Y-1546789D01*
X291224Y-1546789D01*
X290530Y-1546435D01*
X289761Y-1546313D01*
X289761Y-1546313D01*
X278770Y-1544573D01*
X278000Y-1544451D01*
X277230Y-1544573D01*
X266239Y-1546313D01*
X266239Y-1546313D01*
X265470Y-1546435D01*
X264776Y-1546789D01*
X264776Y-1546789D01*
X254860Y-1551841D01*
X254859Y-1551841D01*
X254166Y-1552195D01*
X245195Y-1561166D01*
X239435Y-1572470D01*
X237451Y-1585000D01*
X20050Y-1585000D01*
X20050Y-709000D01*
X962451Y-709000D01*
X964435Y-721530D01*
X970195Y-732834D01*
X979166Y-741805D01*
X979859Y-742158D01*
X979860Y-742159D01*
X989776Y-747211D01*
X990470Y-747565D01*
X991239Y-747686D01*
X991239Y-747686D01*
X1002230Y-749427D01*
X1003000Y-749549D01*
X1003770Y-749427D01*
X1014761Y-747686D01*
X1014761Y-747686D01*
X1015530Y-747565D01*
X1016224Y-747211D01*
X1026140Y-742159D01*
X1026140Y-742158D01*
X1026834Y-741805D01*
X1035805Y-732834D01*
X1041565Y-721530D01*
X1041590Y-721368D01*
X1043790Y-717778D01*
X1170519Y-591049D01*
X1240568Y-521000D01*
X1454451Y-521000D01*
X1456435Y-533530D01*
X1462195Y-544834D01*
X1471166Y-553805D01*
X1471859Y-554159D01*
X1471860Y-554159D01*
X1481776Y-559211D01*
X1482470Y-559565D01*
X1483239Y-559687D01*
X1483239Y-559687D01*
X1494230Y-561427D01*
X1495000Y-561549D01*
X1495770Y-561427D01*
X1506761Y-559687D01*
X1506761Y-559687D01*
X1507530Y-559565D01*
X1517217Y-554629D01*
X1521711Y-553550D01*
X1975672Y-553550D01*
X1981492Y-555441D01*
X1982673Y-556450D01*
X2083293Y-657070D01*
X2083877Y-657707D01*
X2086375Y-660684D01*
X2089741Y-662627D01*
X2090469Y-663091D01*
X2093652Y-665320D01*
X2093864Y-665376D01*
X2096150Y-666977D01*
X2097342Y-668169D01*
X2098036Y-668523D01*
X2098036Y-668523D01*
X2107952Y-673575D01*
X2108646Y-673929D01*
X2109415Y-674051D01*
X2109415Y-674051D01*
X2120406Y-675792D01*
X2121176Y-675913D01*
X2121171Y-675943D01*
X2126525Y-677682D01*
X2130122Y-682632D01*
X2130122Y-688751D01*
X2127707Y-692692D01*
X2049344Y-771054D01*
X2048707Y-771638D01*
X2045730Y-774136D01*
X2045298Y-774885D01*
X2043787Y-777502D01*
X2043323Y-778230D01*
X2041094Y-781413D01*
X2040870Y-782249D01*
X2040624Y-782778D01*
X2040424Y-783327D01*
X2039991Y-784077D01*
X2039841Y-784929D01*
X2039841Y-784929D01*
X2039316Y-787903D01*
X2039129Y-788746D01*
X2038123Y-792500D01*
X2038199Y-793363D01*
X2038462Y-796372D01*
X2038500Y-797234D01*
X2038500Y-1108367D01*
X2036609Y-1114186D01*
X2035600Y-1115367D01*
X1999759Y-1151208D01*
X1994308Y-1153986D01*
X1992239Y-1154314D01*
X1992239Y-1154314D01*
X1991470Y-1154435D01*
X1990776Y-1154789D01*
X1990776Y-1154789D01*
X1980860Y-1159841D01*
X1980859Y-1159842D01*
X1980166Y-1160195D01*
X1971195Y-1169166D01*
X1970841Y-1169860D01*
X1970841Y-1169860D01*
X1968585Y-1174289D01*
X1965435Y-1180470D01*
X1965313Y-1181239D01*
X1965313Y-1181239D01*
X1963706Y-1191387D01*
X1963451Y-1193000D01*
X1963573Y-1193770D01*
X1964718Y-1201000D01*
X1965435Y-1205530D01*
X1971195Y-1216834D01*
X1980166Y-1225805D01*
X1980859Y-1226159D01*
X1980860Y-1226159D01*
X1988088Y-1229841D01*
X1991470Y-1231565D01*
X1992239Y-1231687D01*
X1992239Y-1231687D01*
X2003230Y-1233427D01*
X2004000Y-1233549D01*
X2004770Y-1233427D01*
X2015761Y-1231687D01*
X2015761Y-1231687D01*
X2016530Y-1231565D01*
X2019912Y-1229841D01*
X2027140Y-1226159D01*
X2027140Y-1226159D01*
X2027834Y-1225805D01*
X2036805Y-1216834D01*
X2042565Y-1205530D01*
X2043014Y-1202692D01*
X2045792Y-1197241D01*
X2060195Y-1182838D01*
X2065647Y-1180060D01*
X2071690Y-1181017D01*
X2076016Y-1185344D01*
X2076973Y-1191387D01*
X2075451Y-1201000D01*
X2075573Y-1201770D01*
X2076278Y-1206224D01*
X2077435Y-1213530D01*
X2083195Y-1224834D01*
X2092166Y-1233805D01*
X2092859Y-1234159D01*
X2092860Y-1234159D01*
X2101606Y-1238615D01*
X2103470Y-1239565D01*
X2104239Y-1239687D01*
X2104239Y-1239687D01*
X2115230Y-1241427D01*
X2116000Y-1241549D01*
X2116770Y-1241427D01*
X2127761Y-1239687D01*
X2127761Y-1239687D01*
X2128530Y-1239565D01*
X2130394Y-1238615D01*
X2139140Y-1234159D01*
X2139141Y-1234159D01*
X2139834Y-1233805D01*
X2148805Y-1224834D01*
X2154565Y-1213530D01*
X2155722Y-1206224D01*
X2156427Y-1201770D01*
X2156549Y-1201000D01*
X2156427Y-1200230D01*
X2154687Y-1189239D01*
X2154687Y-1189239D01*
X2154565Y-1188470D01*
X2149629Y-1178783D01*
X2148550Y-1174289D01*
X2148550Y-921553D01*
X2150441Y-915734D01*
X2155391Y-912137D01*
X2161509Y-912137D01*
X2166459Y-915734D01*
X2167271Y-917058D01*
X2168841Y-920140D01*
X2168841Y-920140D01*
X2169195Y-920834D01*
X2178166Y-929805D01*
X2178860Y-930158D01*
X2178860Y-930159D01*
X2188776Y-935211D01*
X2189470Y-935565D01*
X2190239Y-935686D01*
X2190239Y-935686D01*
X2201230Y-937427D01*
X2202000Y-937549D01*
X2202770Y-937427D01*
X2213761Y-935686D01*
X2213761Y-935686D01*
X2214530Y-935565D01*
X2215224Y-935211D01*
X2225140Y-930159D01*
X2225141Y-930158D01*
X2225834Y-929805D01*
X2234805Y-920834D01*
X2235159Y-920140D01*
X2240211Y-910224D01*
X2240211Y-910224D01*
X2240565Y-909530D01*
X2241014Y-906692D01*
X2243792Y-901241D01*
X2506583Y-638450D01*
X2512035Y-635672D01*
X2513583Y-635550D01*
X2594517Y-635550D01*
X2600336Y-637441D01*
X2603932Y-642391D01*
X2603932Y-648509D01*
X2601517Y-652450D01*
X2515294Y-738673D01*
X2514658Y-739256D01*
X2511681Y-741754D01*
X2511248Y-742504D01*
X2509737Y-745120D01*
X2509273Y-745849D01*
X2507045Y-749032D01*
X2506820Y-749868D01*
X2506574Y-750397D01*
X2506374Y-750946D01*
X2505941Y-751695D01*
X2505791Y-752548D01*
X2505791Y-752548D01*
X2505267Y-755522D01*
X2505080Y-756365D01*
X2504074Y-760119D01*
X2504149Y-760982D01*
X2504412Y-763990D01*
X2504450Y-764853D01*
X2504450Y-1280289D01*
X2503371Y-1284783D01*
X2498435Y-1294470D01*
X2498314Y-1295239D01*
X2498314Y-1295239D01*
X2497524Y-1300224D01*
X2496451Y-1307000D01*
X2496573Y-1307770D01*
X2497976Y-1316626D01*
X2498435Y-1319530D01*
X2498789Y-1320224D01*
X2498789Y-1320224D01*
X2503360Y-1329195D01*
X2504195Y-1330834D01*
X2513166Y-1339805D01*
X2513860Y-1340159D01*
X2513860Y-1340159D01*
X2523738Y-1345192D01*
X2524470Y-1345565D01*
X2525239Y-1345687D01*
X2525239Y-1345687D01*
X2536230Y-1347427D01*
X2537000Y-1347549D01*
X2537770Y-1347427D01*
X2548761Y-1345687D01*
X2548761Y-1345687D01*
X2549530Y-1345565D01*
X2550262Y-1345192D01*
X2560140Y-1340159D01*
X2560141Y-1340159D01*
X2560834Y-1339805D01*
X2569805Y-1330834D01*
X2569992Y-1331021D01*
X2573940Y-1328152D01*
X2580058Y-1328151D01*
X2585009Y-1331747D01*
X2586900Y-1337567D01*
X2586900Y-1694405D01*
X2585821Y-1698900D01*
X2580435Y-1709470D01*
X2580314Y-1710239D01*
X2580314Y-1710239D01*
X2578573Y-1721230D01*
X2578451Y-1722000D01*
X2580435Y-1734530D01*
X2580789Y-1735224D01*
X2580789Y-1735224D01*
X2581455Y-1736530D01*
X2586195Y-1745834D01*
X2595166Y-1754805D01*
X2595860Y-1755158D01*
X2595860Y-1755159D01*
X2603930Y-1759271D01*
X2606470Y-1760565D01*
X2607239Y-1760686D01*
X2607239Y-1760686D01*
X2618230Y-1762427D01*
X2619000Y-1762549D01*
X2619770Y-1762427D01*
X2630761Y-1760686D01*
X2630761Y-1760686D01*
X2631530Y-1760565D01*
X2634070Y-1759271D01*
X2642140Y-1755159D01*
X2642141Y-1755158D01*
X2642834Y-1754805D01*
X2651805Y-1745834D01*
X2656546Y-1736530D01*
X2657211Y-1735224D01*
X2657211Y-1735224D01*
X2657565Y-1734530D01*
X2659549Y-1722000D01*
X2657565Y-1709470D01*
X2657414Y-1709175D01*
X2657000Y-1706558D01*
X2657000Y-1174442D01*
X2657414Y-1171825D01*
X2657565Y-1171530D01*
X2659549Y-1159000D01*
X2659427Y-1158230D01*
X2657687Y-1147239D01*
X2657687Y-1147239D01*
X2657565Y-1146470D01*
X2651805Y-1135166D01*
X2642834Y-1126195D01*
X2642141Y-1125842D01*
X2642140Y-1125841D01*
X2632224Y-1120789D01*
X2632224Y-1120789D01*
X2631530Y-1120435D01*
X2630761Y-1120314D01*
X2630761Y-1120314D01*
X2619770Y-1118573D01*
X2619000Y-1118451D01*
X2618230Y-1118573D01*
X2607239Y-1120314D01*
X2607239Y-1120314D01*
X2606470Y-1120435D01*
X2605776Y-1120789D01*
X2605776Y-1120789D01*
X2595860Y-1125841D01*
X2595860Y-1125842D01*
X2595166Y-1126195D01*
X2586450Y-1134910D01*
X2580999Y-1137688D01*
X2574956Y-1136731D01*
X2570629Y-1132405D01*
X2569550Y-1127910D01*
X2569550Y-780583D01*
X2571441Y-774764D01*
X2572450Y-773583D01*
X2662633Y-683400D01*
X2668085Y-680622D01*
X2669633Y-680500D01*
X3450196Y-680500D01*
X3451059Y-680538D01*
X3454931Y-680877D01*
X3455880Y-680622D01*
X3458685Y-679871D01*
X3459528Y-679684D01*
X3462502Y-679159D01*
X3462502Y-679159D01*
X3463354Y-679009D01*
X3464104Y-678576D01*
X3464653Y-678376D01*
X3465181Y-678130D01*
X3466018Y-677906D01*
X3469201Y-675677D01*
X3469929Y-675213D01*
X3473295Y-673270D01*
X3475793Y-670293D01*
X3476376Y-669656D01*
X3836054Y-309979D01*
X3841505Y-307201D01*
X3846962Y-307883D01*
X3862326Y-314484D01*
X3862326Y-314484D01*
X3862744Y-314664D01*
X3867492Y-315738D01*
X3883821Y-319433D01*
X3883821Y-319433D01*
X3884263Y-319533D01*
X3895286Y-319966D01*
X3905856Y-320381D01*
X3905857Y-320381D01*
X3906310Y-320399D01*
X3928145Y-317233D01*
X3928575Y-317087D01*
X3928575Y-317087D01*
X3948608Y-310287D01*
X3949038Y-310141D01*
X3949822Y-309702D01*
X3967892Y-299582D01*
X3968288Y-299360D01*
X3985252Y-285252D01*
X3999360Y-268288D01*
X4010141Y-249038D01*
X4010287Y-248608D01*
X4017087Y-228575D01*
X4017087Y-228575D01*
X4017233Y-228145D01*
X4018516Y-219300D01*
X4020357Y-206600D01*
X4020357Y-206599D01*
X4020399Y-206310D01*
X4020452Y-204291D01*
X4020557Y-200291D01*
X4020557Y-200291D01*
X4020564Y-200000D01*
X4018545Y-178029D01*
X4012556Y-156794D01*
X4012356Y-156386D01*
X4012355Y-156386D01*
X4002999Y-137413D01*
X4002798Y-137005D01*
X3989597Y-119327D01*
X3979539Y-110030D01*
X3973728Y-104658D01*
X3973728Y-104658D01*
X3973395Y-104350D01*
X3969947Y-102174D01*
X3955119Y-92818D01*
X3954735Y-92576D01*
X3934242Y-84401D01*
X3912602Y-80096D01*
X3901735Y-79954D01*
X3890995Y-79813D01*
X3890994Y-79813D01*
X3890541Y-79807D01*
X3890093Y-79884D01*
X3890093Y-79884D01*
X3869243Y-83467D01*
X3869243Y-83467D01*
X3868796Y-83544D01*
X3860531Y-86593D01*
X3848522Y-91023D01*
X3848522Y-91023D01*
X3848096Y-91180D01*
X3847705Y-91413D01*
X3847705Y-91413D01*
X3845749Y-92576D01*
X3829134Y-102461D01*
X3828793Y-102761D01*
X3828792Y-102761D01*
X3820504Y-110030D01*
X3812546Y-117009D01*
X3812265Y-117365D01*
X3800552Y-132224D01*
X3798886Y-134336D01*
X3788613Y-153862D01*
X3788479Y-154295D01*
X3782345Y-174048D01*
X3782070Y-174933D01*
X3782017Y-175384D01*
X3782017Y-175384D01*
X3780765Y-185958D01*
X3779477Y-196844D01*
X3780920Y-218860D01*
X3781032Y-219300D01*
X3781032Y-219300D01*
X3783387Y-228575D01*
X3786351Y-240245D01*
X3792099Y-252714D01*
X3792818Y-258789D01*
X3790109Y-263859D01*
X3441467Y-612501D01*
X3436015Y-615278D01*
X3434466Y-615400D01*
X3395955Y-615400D01*
X3390135Y-613509D01*
X3386539Y-608559D01*
X3386539Y-602441D01*
X3388954Y-598500D01*
X3497479Y-489975D01*
X3621707Y-365747D01*
X3622342Y-365165D01*
X3625319Y-362667D01*
X3627263Y-359300D01*
X3627727Y-358572D01*
X3629458Y-356099D01*
X3629955Y-355390D01*
X3630179Y-354553D01*
X3630426Y-354024D01*
X3630625Y-353476D01*
X3631059Y-352726D01*
X3631734Y-348898D01*
X3631921Y-348055D01*
X3632926Y-344302D01*
X3632588Y-340432D01*
X3632550Y-339569D01*
X3632550Y-322832D01*
X3634441Y-317013D01*
X3639268Y-313458D01*
X3648608Y-310287D01*
X3648608Y-310287D01*
X3649038Y-310141D01*
X3649822Y-309702D01*
X3667892Y-299582D01*
X3668288Y-299360D01*
X3685252Y-285252D01*
X3699360Y-268288D01*
X3710141Y-249038D01*
X3710287Y-248608D01*
X3717087Y-228575D01*
X3717087Y-228575D01*
X3717233Y-228145D01*
X3718516Y-219300D01*
X3720357Y-206600D01*
X3720357Y-206599D01*
X3720399Y-206310D01*
X3720452Y-204291D01*
X3720557Y-200291D01*
X3720557Y-200291D01*
X3720564Y-200000D01*
X3718545Y-178029D01*
X3712556Y-156794D01*
X3712356Y-156386D01*
X3712355Y-156386D01*
X3702999Y-137413D01*
X3702798Y-137005D01*
X3689597Y-119327D01*
X3679539Y-110030D01*
X3673728Y-104658D01*
X3673728Y-104658D01*
X3673395Y-104350D01*
X3669947Y-102174D01*
X3655119Y-92818D01*
X3654735Y-92576D01*
X3634242Y-84401D01*
X3612602Y-80096D01*
X3601735Y-79954D01*
X3590995Y-79813D01*
X3590994Y-79813D01*
X3590541Y-79807D01*
X3590093Y-79884D01*
X3590093Y-79884D01*
X3569243Y-83467D01*
X3569243Y-83467D01*
X3568796Y-83544D01*
X3560531Y-86593D01*
X3548522Y-91023D01*
X3548522Y-91023D01*
X3548096Y-91180D01*
X3547705Y-91413D01*
X3547705Y-91413D01*
X3545749Y-92576D01*
X3529134Y-102461D01*
X3528793Y-102761D01*
X3528792Y-102761D01*
X3520504Y-110030D01*
X3512546Y-117009D01*
X3512265Y-117365D01*
X3500552Y-132224D01*
X3498886Y-134336D01*
X3488613Y-153862D01*
X3488479Y-154295D01*
X3482345Y-174048D01*
X3482070Y-174933D01*
X3482017Y-175384D01*
X3482017Y-175384D01*
X3480765Y-185958D01*
X3479477Y-196844D01*
X3480920Y-218860D01*
X3481032Y-219300D01*
X3481032Y-219300D01*
X3483387Y-228575D01*
X3486351Y-240245D01*
X3495588Y-260282D01*
X3508322Y-278300D01*
X3524126Y-293696D01*
X3542472Y-305954D01*
X3542888Y-306133D01*
X3542889Y-306133D01*
X3561458Y-314111D01*
X3566058Y-318145D01*
X3567450Y-323207D01*
X3567450Y-323838D01*
X3565559Y-329657D01*
X3564550Y-330838D01*
X3327838Y-567550D01*
X3322387Y-570328D01*
X3320838Y-570450D01*
X2497853Y-570450D01*
X2496991Y-570412D01*
X2493982Y-570149D01*
X2493119Y-570074D01*
X2492283Y-570298D01*
X2489365Y-571080D01*
X2488522Y-571267D01*
X2485548Y-571791D01*
X2485548Y-571791D01*
X2484696Y-571941D01*
X2483946Y-572374D01*
X2483397Y-572574D01*
X2482868Y-572820D01*
X2482032Y-573045D01*
X2479094Y-575101D01*
X2478849Y-575273D01*
X2478121Y-575737D01*
X2474755Y-577681D01*
X2472854Y-579946D01*
X2472257Y-580657D01*
X2471674Y-581294D01*
X2197759Y-855208D01*
X2192308Y-857986D01*
X2190239Y-858313D01*
X2190239Y-858314D01*
X2189470Y-858435D01*
X2188776Y-858789D01*
X2188776Y-858789D01*
X2178860Y-863841D01*
X2178860Y-863841D01*
X2178166Y-864195D01*
X2169195Y-873166D01*
X2168842Y-873860D01*
X2168841Y-873860D01*
X2167271Y-876942D01*
X2162944Y-881268D01*
X2156901Y-882225D01*
X2151450Y-879448D01*
X2148672Y-873996D01*
X2148550Y-872447D01*
X2148550Y-831583D01*
X2150441Y-825764D01*
X2151450Y-824583D01*
X2518706Y-457327D01*
X2519343Y-456743D01*
X2520039Y-456159D01*
X2522319Y-454245D01*
X2524263Y-450879D01*
X2524727Y-450151D01*
X2524899Y-449906D01*
X2526955Y-446968D01*
X2527180Y-446132D01*
X2527426Y-445603D01*
X2527626Y-445054D01*
X2528059Y-444304D01*
X2528733Y-440478D01*
X2528920Y-439635D01*
X2529702Y-436717D01*
X2529926Y-435881D01*
X2529588Y-432009D01*
X2529550Y-431146D01*
X2529550Y-323850D01*
X2531441Y-318031D01*
X2536268Y-314476D01*
X2549038Y-310141D01*
X2549822Y-309702D01*
X2567893Y-299582D01*
X2568288Y-299360D01*
X2585252Y-285252D01*
X2599360Y-268288D01*
X2610141Y-249038D01*
X2610287Y-248608D01*
X2617087Y-228575D01*
X2617087Y-228575D01*
X2617233Y-228145D01*
X2618516Y-219300D01*
X2620357Y-206600D01*
X2620357Y-206599D01*
X2620399Y-206310D01*
X2620452Y-204291D01*
X2620557Y-200291D01*
X2620557Y-200291D01*
X2620564Y-200000D01*
X2618545Y-178029D01*
X2612557Y-156794D01*
X2612356Y-156386D01*
X2612356Y-156386D01*
X2602999Y-137413D01*
X2602798Y-137005D01*
X2589597Y-119327D01*
X2579539Y-110030D01*
X2573728Y-104658D01*
X2573728Y-104658D01*
X2573395Y-104350D01*
X2569947Y-102174D01*
X2555119Y-92818D01*
X2554735Y-92576D01*
X2534242Y-84401D01*
X2512602Y-80096D01*
X2501735Y-79954D01*
X2490995Y-79813D01*
X2490994Y-79813D01*
X2490541Y-79807D01*
X2490093Y-79884D01*
X2490093Y-79884D01*
X2469244Y-83467D01*
X2469243Y-83467D01*
X2468796Y-83544D01*
X2460532Y-86593D01*
X2448522Y-91023D01*
X2448522Y-91023D01*
X2448096Y-91180D01*
X2447705Y-91413D01*
X2447705Y-91413D01*
X2445749Y-92576D01*
X2429134Y-102461D01*
X2428793Y-102761D01*
X2428792Y-102761D01*
X2420504Y-110030D01*
X2412546Y-117009D01*
X2412265Y-117365D01*
X2400552Y-132224D01*
X2398886Y-134336D01*
X2388613Y-153862D01*
X2388479Y-154295D01*
X2382345Y-174048D01*
X2382070Y-174933D01*
X2382017Y-175384D01*
X2382017Y-175384D01*
X2380766Y-185958D01*
X2379477Y-196844D01*
X2380920Y-218860D01*
X2381032Y-219300D01*
X2381032Y-219300D01*
X2383387Y-228575D01*
X2386351Y-240245D01*
X2395588Y-260282D01*
X2408322Y-278300D01*
X2424126Y-293696D01*
X2442472Y-305954D01*
X2442888Y-306133D01*
X2442889Y-306133D01*
X2458458Y-312822D01*
X2463058Y-316857D01*
X2464450Y-321918D01*
X2464450Y-415417D01*
X2462559Y-421236D01*
X2461550Y-422417D01*
X2249450Y-634517D01*
X2243999Y-637295D01*
X2237956Y-636338D01*
X2233629Y-632011D01*
X2232550Y-627517D01*
X2232550Y-326832D01*
X2234441Y-321013D01*
X2239268Y-317458D01*
X2248608Y-314287D01*
X2248608Y-314287D01*
X2249038Y-314141D01*
X2268288Y-303360D01*
X2285252Y-289252D01*
X2299360Y-272288D01*
X2310141Y-253038D01*
X2313275Y-243806D01*
X2317087Y-232575D01*
X2317087Y-232575D01*
X2317233Y-232145D01*
X2318516Y-223300D01*
X2320357Y-210600D01*
X2320357Y-210599D01*
X2320399Y-210310D01*
X2320496Y-206600D01*
X2320557Y-204291D01*
X2320557Y-204291D01*
X2320564Y-204000D01*
X2320197Y-200000D01*
X2318587Y-182481D01*
X2318545Y-182029D01*
X2312557Y-160794D01*
X2312356Y-160386D01*
X2312356Y-160386D01*
X2302999Y-141413D01*
X2302798Y-141005D01*
X2289597Y-123327D01*
X2282439Y-116710D01*
X2273728Y-108658D01*
X2273728Y-108658D01*
X2273395Y-108350D01*
X2266672Y-104108D01*
X2255119Y-96818D01*
X2254735Y-96576D01*
X2234242Y-88401D01*
X2212602Y-84096D01*
X2201735Y-83954D01*
X2190995Y-83813D01*
X2190994Y-83813D01*
X2190541Y-83807D01*
X2190093Y-83884D01*
X2190093Y-83884D01*
X2169244Y-87467D01*
X2169243Y-87467D01*
X2168796Y-87544D01*
X2166018Y-88569D01*
X2148522Y-95023D01*
X2148522Y-95023D01*
X2148096Y-95180D01*
X2147705Y-95413D01*
X2147705Y-95413D01*
X2145342Y-96818D01*
X2129134Y-106461D01*
X2128793Y-106761D01*
X2128792Y-106761D01*
X2125065Y-110030D01*
X2112546Y-121009D01*
X2112265Y-121365D01*
X2101723Y-134738D01*
X2098886Y-138336D01*
X2098675Y-138738D01*
X2090490Y-154295D01*
X2088613Y-157862D01*
X2088479Y-158295D01*
X2082211Y-178481D01*
X2082070Y-178933D01*
X2082017Y-179384D01*
X2082017Y-179384D01*
X2081705Y-182021D01*
X2079477Y-200844D01*
X2079816Y-206017D01*
X2080628Y-218408D01*
X2080920Y-222860D01*
X2081032Y-223300D01*
X2081032Y-223300D01*
X2083387Y-232575D01*
X2086351Y-244245D01*
X2095588Y-264282D01*
X2108322Y-282300D01*
X2124126Y-297696D01*
X2142472Y-309954D01*
X2142888Y-310133D01*
X2142889Y-310133D01*
X2161458Y-318111D01*
X2166058Y-322145D01*
X2167450Y-327207D01*
X2167450Y-601098D01*
X2165559Y-606917D01*
X2160609Y-610514D01*
X2154491Y-610514D01*
X2150550Y-608099D01*
X2145010Y-602559D01*
X2144317Y-602206D01*
X2144316Y-602206D01*
X2134400Y-597153D01*
X2134400Y-597153D01*
X2133706Y-596800D01*
X2132937Y-596678D01*
X2132937Y-596678D01*
X2121946Y-594937D01*
X2121176Y-594815D01*
X2120406Y-594937D01*
X2120406Y-594937D01*
X2119189Y-595130D01*
X2113146Y-594172D01*
X2110640Y-592352D01*
X2017583Y-499294D01*
X2016999Y-498657D01*
X2015286Y-496615D01*
X2014501Y-495681D01*
X2011135Y-493737D01*
X2010407Y-493273D01*
X2010161Y-493101D01*
X2007224Y-491045D01*
X2006387Y-490820D01*
X2005859Y-490574D01*
X2005310Y-490374D01*
X2004560Y-489941D01*
X2003708Y-489791D01*
X2003708Y-489791D01*
X2000734Y-489267D01*
X1999891Y-489080D01*
X1996973Y-488298D01*
X1996137Y-488074D01*
X1993574Y-488298D01*
X1992265Y-488412D01*
X1991402Y-488450D01*
X1521711Y-488450D01*
X1517217Y-487371D01*
X1508224Y-482789D01*
X1508224Y-482789D01*
X1507530Y-482435D01*
X1506761Y-482313D01*
X1506761Y-482313D01*
X1495770Y-480573D01*
X1495000Y-480451D01*
X1494230Y-480573D01*
X1483239Y-482313D01*
X1483239Y-482313D01*
X1482470Y-482435D01*
X1481776Y-482789D01*
X1481776Y-482789D01*
X1471860Y-487841D01*
X1471859Y-487841D01*
X1471166Y-488195D01*
X1462195Y-497166D01*
X1461841Y-497859D01*
X1461841Y-497860D01*
X1456789Y-507776D01*
X1456435Y-508470D01*
X1454451Y-521000D01*
X1240568Y-521000D01*
X1300619Y-460950D01*
X1306070Y-458172D01*
X1307619Y-458050D01*
X2063195Y-458050D01*
X2067689Y-459129D01*
X2072470Y-461565D01*
X2073239Y-461686D01*
X2073239Y-461686D01*
X2084230Y-463427D01*
X2085000Y-463549D01*
X2085770Y-463427D01*
X2096761Y-461686D01*
X2096761Y-461686D01*
X2097530Y-461565D01*
X2098737Y-460950D01*
X2108140Y-456159D01*
X2108141Y-456158D01*
X2108834Y-455805D01*
X2117805Y-446834D01*
X2121473Y-439635D01*
X2123211Y-436224D01*
X2123211Y-436224D01*
X2123565Y-435530D01*
X2125549Y-423000D01*
X2123565Y-410470D01*
X2123211Y-409776D01*
X2118159Y-399860D01*
X2118159Y-399859D01*
X2117805Y-399166D01*
X2108834Y-390195D01*
X2108141Y-389841D01*
X2108140Y-389841D01*
X2098224Y-384789D01*
X2098224Y-384789D01*
X2097530Y-384435D01*
X2096761Y-384313D01*
X2096761Y-384313D01*
X2085770Y-382573D01*
X2085000Y-382451D01*
X2084230Y-382573D01*
X2073239Y-384313D01*
X2073239Y-384313D01*
X2072470Y-384435D01*
X2071776Y-384789D01*
X2071776Y-384789D01*
X2067689Y-386871D01*
X2063195Y-387950D01*
X1293795Y-387950D01*
X1291711Y-387728D01*
X1291583Y-387701D01*
X1290674Y-387505D01*
X1287493Y-387881D01*
X1286904Y-387916D01*
X1286904Y-387916D01*
X1286497Y-387950D01*
X1286089Y-387950D01*
X1285686Y-388017D01*
X1285685Y-388017D01*
X1284288Y-388250D01*
X1283827Y-388315D01*
X1281531Y-388587D01*
X1279899Y-388780D01*
X1279899Y-388780D01*
X1279086Y-388876D01*
X1278388Y-389212D01*
X1278255Y-389254D01*
X1277490Y-389381D01*
X1273284Y-391650D01*
X1272872Y-391860D01*
X1269128Y-393658D01*
X1269128Y-393658D01*
X1268567Y-393927D01*
X1268173Y-394259D01*
X1268022Y-394410D01*
X1267893Y-394528D01*
X1267790Y-394615D01*
X1267221Y-394922D01*
X1266666Y-395523D01*
X1266665Y-395523D01*
X1263819Y-398602D01*
X1263550Y-398882D01*
X994222Y-668210D01*
X990632Y-670410D01*
X990470Y-670435D01*
X989775Y-670789D01*
X989775Y-670789D01*
X979860Y-675841D01*
X979859Y-675842D01*
X979166Y-676195D01*
X970195Y-685166D01*
X964435Y-696470D01*
X962451Y-709000D01*
X20050Y-709000D01*
X20050Y-629950D01*
X21941Y-624131D01*
X26891Y-620535D01*
X29950Y-620050D01*
X396572Y-620050D01*
X398807Y-620306D01*
X399928Y-620566D01*
X400000Y-620566D01*
X400546Y-620441D01*
X400723Y-620421D01*
X401225Y-620378D01*
X420162Y-619233D01*
X426274Y-618863D01*
X426274Y-618863D01*
X426573Y-618845D01*
X445370Y-615400D01*
X452464Y-614100D01*
X452464Y-614100D01*
X452758Y-614046D01*
X457718Y-612501D01*
X477888Y-606215D01*
X477888Y-606215D01*
X478173Y-606126D01*
X478445Y-606004D01*
X478446Y-606004D01*
X502177Y-595323D01*
X502177Y-595323D01*
X502449Y-595201D01*
X503087Y-594815D01*
X524975Y-581584D01*
X525231Y-581429D01*
X525792Y-580989D01*
X539725Y-570074D01*
X546187Y-565011D01*
X565011Y-546187D01*
X581429Y-525231D01*
X595201Y-502449D01*
X595323Y-502177D01*
X595323Y-502177D01*
X606004Y-478446D01*
X606004Y-478445D01*
X606126Y-478173D01*
X611302Y-461565D01*
X613957Y-453043D01*
X613957Y-453043D01*
X614046Y-452758D01*
X614459Y-450505D01*
X618791Y-426867D01*
X618845Y-426573D01*
X619108Y-422230D01*
X620372Y-401327D01*
X620419Y-400792D01*
X620439Y-400618D01*
X620566Y-400072D01*
X620566Y-400000D01*
X620441Y-399454D01*
X620298Y-398827D01*
X620050Y-396625D01*
X620050Y-29950D01*
X621941Y-24131D01*
X626891Y-20535D01*
X629950Y-20050D01*
X4296686Y-20050D01*
X4298849Y-20289D01*
G37*
G04 #@! TD.AperFunction*
M02*
