G04 #@! TF.GenerationSoftware,KiCad,Pcbnew,6.0.11-2627ca5db0~126~ubuntu22.04.1*
G04 #@! TF.CreationDate,2023-11-29T16:22:24+00:00*
G04 #@! TF.ProjectId,GeoLoc,47656f4c-6f63-42e6-9b69-6361645f7063,rev?*
G04 #@! TF.SameCoordinates,PX44794c0PY22243c0*
G04 #@! TF.FileFunction,Legend,Bot*
G04 #@! TF.FilePolarity,Positive*
%FSLAX45Y45*%
G04 Gerber Fmt 4.5, Leading zero omitted, Abs format (unit mm)*
G04 Created by KiCad (PCBNEW 6.0.11-2627ca5db0~126~ubuntu22.04.1) date 2023-11-29 16:22:24*
%MOMM*%
%LPD*%
G01*
G04 APERTURE LIST*
G04 Aperture macros list*
%AMRoundRect*
0 Rectangle with rounded corners*
0 $1 Rounding radius*
0 $2 $3 $4 $5 $6 $7 $8 $9 X,Y pos of 4 corners*
0 Add a 4 corners polygon primitive as box body*
4,1,4,$2,$3,$4,$5,$6,$7,$8,$9,$2,$3,0*
0 Add four circle primitives for the rounded corners*
1,1,$1+$1,$2,$3*
1,1,$1+$1,$4,$5*
1,1,$1+$1,$6,$7*
1,1,$1+$1,$8,$9*
0 Add four rect primitives between the rounded corners*
20,1,$1+$1,$2,$3,$4,$5,0*
20,1,$1+$1,$4,$5,$6,$7,0*
20,1,$1+$1,$6,$7,$8,$9,0*
20,1,$1+$1,$8,$9,$2,$3,0*%
G04 Aperture macros list end*
%ADD10C,0.100000*%
%ADD11C,0.120000*%
%ADD12RoundRect,0.250000X0.625000X-0.350000X0.625000X0.350000X-0.625000X0.350000X-0.625000X-0.350000X0*%
%ADD13O,1.750000X1.200000*%
%ADD14C,4.400000*%
%ADD15R,1.380000X0.450000*%
%ADD16R,0.900000X1.800000*%
%ADD17R,1.300000X1.650000*%
%ADD18R,1.550000X1.425000*%
%ADD19R,0.900000X1.750000*%
%ADD20C,2.000000*%
%ADD21C,0.400000*%
G04 APERTURE END LIST*
D10*
X666762Y-2179857D02*
X652476Y-2184619D01*
X647714Y-2189381D01*
X642952Y-2198905D01*
X642952Y-2213190D01*
X647714Y-2222714D01*
X652476Y-2227476D01*
X662000Y-2232238D01*
X700095Y-2232238D01*
X700095Y-2132238D01*
X666762Y-2132238D01*
X657238Y-2137000D01*
X652476Y-2141762D01*
X647714Y-2151286D01*
X647714Y-2160810D01*
X652476Y-2170333D01*
X657238Y-2175095D01*
X666762Y-2179857D01*
X700095Y-2179857D01*
X600095Y-2194143D02*
X523905Y-2194143D01*
X4246400Y-560071D02*
X4250924Y-569595D01*
X4250924Y-583881D01*
X4246400Y-598167D01*
X4237352Y-607690D01*
X4228305Y-612452D01*
X4210210Y-617214D01*
X4196638Y-617214D01*
X4178543Y-612452D01*
X4169495Y-607690D01*
X4160448Y-598167D01*
X4155924Y-583881D01*
X4155924Y-574357D01*
X4160448Y-560071D01*
X4164971Y-555310D01*
X4196638Y-555310D01*
X4196638Y-574357D01*
X4155924Y-512452D02*
X4250924Y-512452D01*
X4155924Y-455309D01*
X4250924Y-455309D01*
X4155924Y-407690D02*
X4250924Y-407690D01*
X4250924Y-383881D01*
X4246400Y-369595D01*
X4237352Y-360071D01*
X4228305Y-355309D01*
X4210210Y-350548D01*
X4196638Y-350548D01*
X4178543Y-355309D01*
X4169495Y-360071D01*
X4160448Y-369595D01*
X4155924Y-383881D01*
X4155924Y-407690D01*
X3854548Y-774357D02*
X3850024Y-760071D01*
X3850024Y-736262D01*
X3854548Y-726738D01*
X3859071Y-721976D01*
X3868119Y-717214D01*
X3877167Y-717214D01*
X3886214Y-721976D01*
X3890738Y-726738D01*
X3895262Y-736262D01*
X3899786Y-755309D01*
X3904309Y-764833D01*
X3908833Y-769595D01*
X3917881Y-774357D01*
X3926928Y-774357D01*
X3935976Y-769595D01*
X3940500Y-764833D01*
X3945024Y-755309D01*
X3945024Y-731500D01*
X3940500Y-717214D01*
X3945024Y-683881D02*
X3850024Y-660071D01*
X3917881Y-641024D01*
X3850024Y-621976D01*
X3945024Y-598167D01*
X3850024Y-560071D02*
X3945024Y-560071D01*
X3945024Y-536262D01*
X3940500Y-521976D01*
X3931452Y-512452D01*
X3922405Y-507690D01*
X3904309Y-502928D01*
X3890738Y-502928D01*
X3872643Y-507690D01*
X3863595Y-512452D01*
X3854548Y-521976D01*
X3850024Y-536262D01*
X3850024Y-560071D01*
X3850024Y-460071D02*
X3945024Y-460071D01*
X3945024Y-393405D02*
X3945024Y-374357D01*
X3940500Y-364833D01*
X3931452Y-355309D01*
X3913357Y-350548D01*
X3881690Y-350548D01*
X3863595Y-355309D01*
X3854548Y-364833D01*
X3850024Y-374357D01*
X3850024Y-393405D01*
X3854548Y-402928D01*
X3863595Y-412452D01*
X3881690Y-417214D01*
X3913357Y-417214D01*
X3931452Y-412452D01*
X3940500Y-402928D01*
X3945024Y-393405D01*
X3548648Y-802928D02*
X3544124Y-788643D01*
X3544124Y-764833D01*
X3548648Y-755309D01*
X3553171Y-750548D01*
X3562219Y-745786D01*
X3571267Y-745786D01*
X3580314Y-750548D01*
X3584838Y-755309D01*
X3589362Y-764833D01*
X3593886Y-783881D01*
X3598409Y-793405D01*
X3602933Y-798167D01*
X3611981Y-802928D01*
X3621028Y-802928D01*
X3630076Y-798167D01*
X3634600Y-793405D01*
X3639124Y-783881D01*
X3639124Y-760071D01*
X3634600Y-745786D01*
X3639124Y-712452D02*
X3544124Y-688643D01*
X3611981Y-669595D01*
X3544124Y-650548D01*
X3639124Y-626738D01*
X3553171Y-531500D02*
X3548648Y-536262D01*
X3544124Y-550548D01*
X3544124Y-560071D01*
X3548648Y-574357D01*
X3557695Y-583881D01*
X3566743Y-588643D01*
X3584838Y-593405D01*
X3598409Y-593405D01*
X3616505Y-588643D01*
X3625552Y-583881D01*
X3634600Y-574357D01*
X3639124Y-560071D01*
X3639124Y-550548D01*
X3634600Y-536262D01*
X3630076Y-531500D01*
X3544124Y-441024D02*
X3544124Y-488643D01*
X3639124Y-488643D01*
X3544124Y-407690D02*
X3639124Y-407690D01*
X3544124Y-350548D02*
X3598409Y-393405D01*
X3639124Y-350548D02*
X3584838Y-407690D01*
X2583974Y-501405D02*
X2583974Y-444262D01*
X2488974Y-472833D02*
X2583974Y-472833D01*
X2583974Y-420452D02*
X2488974Y-353786D01*
X2583974Y-353786D02*
X2488974Y-420452D01*
X2183074Y-453786D02*
X2228312Y-487119D01*
X2183074Y-510928D02*
X2278074Y-510928D01*
X2278074Y-472833D01*
X2273550Y-463309D01*
X2269026Y-458548D01*
X2259979Y-453786D01*
X2246407Y-453786D01*
X2237360Y-458548D01*
X2232836Y-463309D01*
X2228312Y-472833D01*
X2228312Y-510928D01*
X2278074Y-420452D02*
X2183074Y-353786D01*
X2278074Y-353786D02*
X2183074Y-420452D01*
X3450524Y-2254000D02*
X3460048Y-2249238D01*
X3474333Y-2249238D01*
X3488619Y-2254000D01*
X3498143Y-2263524D01*
X3502905Y-2273048D01*
X3507667Y-2292095D01*
X3507667Y-2306381D01*
X3502905Y-2325429D01*
X3498143Y-2334952D01*
X3488619Y-2344476D01*
X3474333Y-2349238D01*
X3464809Y-2349238D01*
X3450524Y-2344476D01*
X3445762Y-2339714D01*
X3445762Y-2306381D01*
X3464809Y-2306381D01*
X3364809Y-2344476D02*
X3374333Y-2349238D01*
X3393381Y-2349238D01*
X3402905Y-2344476D01*
X3407667Y-2334952D01*
X3407667Y-2296857D01*
X3402905Y-2287333D01*
X3393381Y-2282571D01*
X3374333Y-2282571D01*
X3364809Y-2287333D01*
X3360048Y-2296857D01*
X3360048Y-2306381D01*
X3407667Y-2315905D01*
X3302905Y-2349238D02*
X3312428Y-2344476D01*
X3317190Y-2339714D01*
X3321952Y-2330190D01*
X3321952Y-2301619D01*
X3317190Y-2292095D01*
X3312428Y-2287333D01*
X3302905Y-2282571D01*
X3288619Y-2282571D01*
X3279095Y-2287333D01*
X3274333Y-2292095D01*
X3269571Y-2301619D01*
X3269571Y-2330190D01*
X3274333Y-2339714D01*
X3279095Y-2344476D01*
X3288619Y-2349238D01*
X3302905Y-2349238D01*
X3179095Y-2349238D02*
X3226714Y-2349238D01*
X3226714Y-2249238D01*
X3131476Y-2349238D02*
X3141000Y-2344476D01*
X3145762Y-2339714D01*
X3150524Y-2330190D01*
X3150524Y-2301619D01*
X3145762Y-2292095D01*
X3141000Y-2287333D01*
X3131476Y-2282571D01*
X3117190Y-2282571D01*
X3107667Y-2287333D01*
X3102905Y-2292095D01*
X3098143Y-2301619D01*
X3098143Y-2330190D01*
X3102905Y-2339714D01*
X3107667Y-2344476D01*
X3117190Y-2349238D01*
X3131476Y-2349238D01*
X3012428Y-2344476D02*
X3021952Y-2349238D01*
X3041000Y-2349238D01*
X3050524Y-2344476D01*
X3055286Y-2339714D01*
X3060048Y-2330190D01*
X3060048Y-2301619D01*
X3055286Y-2292095D01*
X3050524Y-2287333D01*
X3041000Y-2282571D01*
X3021952Y-2282571D01*
X3012428Y-2287333D01*
X2836238Y-2349238D02*
X2869571Y-2301619D01*
X2893381Y-2349238D02*
X2893381Y-2249238D01*
X2855286Y-2249238D01*
X2845762Y-2254000D01*
X2841000Y-2258762D01*
X2836238Y-2268286D01*
X2836238Y-2282571D01*
X2841000Y-2292095D01*
X2845762Y-2296857D01*
X2855286Y-2301619D01*
X2893381Y-2301619D01*
X2793381Y-2296857D02*
X2760048Y-2296857D01*
X2745762Y-2349238D02*
X2793381Y-2349238D01*
X2793381Y-2249238D01*
X2745762Y-2249238D01*
X2717190Y-2249238D02*
X2683857Y-2349238D01*
X2650524Y-2249238D01*
X2621952Y-2320667D02*
X2574333Y-2320667D01*
X2631476Y-2349238D02*
X2598143Y-2249238D01*
X2564810Y-2349238D01*
X3205286Y-2548333D02*
X3210048Y-2543571D01*
X3219571Y-2529286D01*
X3224333Y-2519762D01*
X3229095Y-2505476D01*
X3233857Y-2481667D01*
X3233857Y-2462619D01*
X3229095Y-2438810D01*
X3224333Y-2424524D01*
X3219571Y-2415000D01*
X3210048Y-2400714D01*
X3205286Y-2395952D01*
X3110048Y-2500714D02*
X3114809Y-2505476D01*
X3129095Y-2510238D01*
X3138619Y-2510238D01*
X3152905Y-2505476D01*
X3162428Y-2495952D01*
X3167190Y-2486429D01*
X3171952Y-2467381D01*
X3171952Y-2453095D01*
X3167190Y-2434048D01*
X3162428Y-2424524D01*
X3152905Y-2415000D01*
X3138619Y-2410238D01*
X3129095Y-2410238D01*
X3114809Y-2415000D01*
X3110048Y-2419762D01*
X3076714Y-2548333D02*
X3071952Y-2543571D01*
X3062428Y-2529286D01*
X3057667Y-2519762D01*
X3052905Y-2505476D01*
X3048143Y-2481667D01*
X3048143Y-2462619D01*
X3052905Y-2438810D01*
X3057667Y-2424524D01*
X3062428Y-2415000D01*
X3071952Y-2400714D01*
X3076714Y-2395952D01*
X2929095Y-2505476D02*
X2914809Y-2510238D01*
X2891000Y-2510238D01*
X2881476Y-2505476D01*
X2876714Y-2500714D01*
X2871952Y-2491190D01*
X2871952Y-2481667D01*
X2876714Y-2472143D01*
X2881476Y-2467381D01*
X2891000Y-2462619D01*
X2910048Y-2457857D01*
X2919571Y-2453095D01*
X2924333Y-2448333D01*
X2929095Y-2438810D01*
X2929095Y-2429286D01*
X2924333Y-2419762D01*
X2919571Y-2415000D01*
X2910048Y-2410238D01*
X2886238Y-2410238D01*
X2871952Y-2415000D01*
X2829095Y-2510238D02*
X2829095Y-2410238D01*
X2805286Y-2410238D01*
X2791000Y-2415000D01*
X2781476Y-2424524D01*
X2776714Y-2434048D01*
X2771952Y-2453095D01*
X2771952Y-2467381D01*
X2776714Y-2486429D01*
X2781476Y-2495952D01*
X2791000Y-2505476D01*
X2805286Y-2510238D01*
X2829095Y-2510238D01*
X2681476Y-2510238D02*
X2729095Y-2510238D01*
X2729095Y-2410238D01*
X3098143Y-2580762D02*
X3093381Y-2576000D01*
X3083857Y-2571238D01*
X3060048Y-2571238D01*
X3050524Y-2576000D01*
X3045762Y-2580762D01*
X3041000Y-2590286D01*
X3041000Y-2599810D01*
X3045762Y-2614095D01*
X3102905Y-2671238D01*
X3041000Y-2671238D01*
X2979095Y-2571238D02*
X2969571Y-2571238D01*
X2960048Y-2576000D01*
X2955286Y-2580762D01*
X2950524Y-2590286D01*
X2945762Y-2609333D01*
X2945762Y-2633143D01*
X2950524Y-2652190D01*
X2955286Y-2661714D01*
X2960048Y-2666476D01*
X2969571Y-2671238D01*
X2979095Y-2671238D01*
X2988619Y-2666476D01*
X2993381Y-2661714D01*
X2998143Y-2652190D01*
X3002905Y-2633143D01*
X3002905Y-2609333D01*
X2998143Y-2590286D01*
X2993381Y-2580762D01*
X2988619Y-2576000D01*
X2979095Y-2571238D01*
X2907667Y-2580762D02*
X2902905Y-2576000D01*
X2893381Y-2571238D01*
X2869571Y-2571238D01*
X2860048Y-2576000D01*
X2855286Y-2580762D01*
X2850524Y-2590286D01*
X2850524Y-2599810D01*
X2855286Y-2614095D01*
X2912428Y-2671238D01*
X2850524Y-2671238D01*
X2817190Y-2571238D02*
X2755286Y-2571238D01*
X2788619Y-2609333D01*
X2774333Y-2609333D01*
X2764810Y-2614095D01*
X2760048Y-2618857D01*
X2755286Y-2628381D01*
X2755286Y-2652190D01*
X2760048Y-2661714D01*
X2764810Y-2666476D01*
X2774333Y-2671238D01*
X2802905Y-2671238D01*
X2812428Y-2666476D01*
X2817190Y-2661714D01*
X661762Y-2416857D02*
X647476Y-2421619D01*
X642714Y-2426381D01*
X637952Y-2435905D01*
X637952Y-2450190D01*
X642714Y-2459714D01*
X647476Y-2464476D01*
X657000Y-2469238D01*
X695095Y-2469238D01*
X695095Y-2369238D01*
X661762Y-2369238D01*
X652238Y-2374000D01*
X647476Y-2378762D01*
X642714Y-2388286D01*
X642714Y-2397810D01*
X647476Y-2407333D01*
X652238Y-2412095D01*
X661762Y-2416857D01*
X695095Y-2416857D01*
X595095Y-2431143D02*
X518905Y-2431143D01*
X557000Y-2469238D02*
X557000Y-2393048D01*
X307333Y-2648095D02*
X307333Y-2676667D01*
X309238Y-2682381D01*
X313048Y-2686190D01*
X318762Y-2688095D01*
X322571Y-2688095D01*
X290190Y-2651905D02*
X288286Y-2650000D01*
X284476Y-2648095D01*
X274952Y-2648095D01*
X271143Y-2650000D01*
X269238Y-2651905D01*
X267333Y-2655714D01*
X267333Y-2659524D01*
X269238Y-2665238D01*
X292095Y-2688095D01*
X267333Y-2688095D01*
X552333Y-1196095D02*
X552333Y-1224667D01*
X554238Y-1230381D01*
X558048Y-1234190D01*
X563762Y-1236095D01*
X567571Y-1236095D01*
X512333Y-1236095D02*
X535190Y-1236095D01*
X523762Y-1236095D02*
X523762Y-1196095D01*
X527571Y-1201810D01*
X531381Y-1205619D01*
X535190Y-1207524D01*
X4348476Y-47095D02*
X4325619Y-47095D01*
X4337048Y-87095D02*
X4337048Y-47095D01*
X4293238Y-47095D02*
X4312286Y-47095D01*
X4314190Y-66143D01*
X4312286Y-64238D01*
X4308476Y-62333D01*
X4298952Y-62333D01*
X4295143Y-64238D01*
X4293238Y-66143D01*
X4291333Y-69952D01*
X4291333Y-79476D01*
X4293238Y-83286D01*
X4295143Y-85190D01*
X4298952Y-87095D01*
X4308476Y-87095D01*
X4312286Y-85190D01*
X4314190Y-83286D01*
X4063476Y-58095D02*
X4040619Y-58095D01*
X4052048Y-98095D02*
X4052048Y-58095D01*
X4010143Y-71429D02*
X4010143Y-98095D01*
X4019667Y-56190D02*
X4029190Y-84762D01*
X4004428Y-84762D01*
X3762476Y-58095D02*
X3739619Y-58095D01*
X3751048Y-98095D02*
X3751048Y-58095D01*
X3730095Y-58095D02*
X3705333Y-58095D01*
X3718667Y-73333D01*
X3712952Y-73333D01*
X3709143Y-75238D01*
X3707238Y-77143D01*
X3705333Y-80952D01*
X3705333Y-90476D01*
X3707238Y-94286D01*
X3709143Y-96190D01*
X3712952Y-98095D01*
X3724381Y-98095D01*
X3728190Y-96190D01*
X3730095Y-94286D01*
X2648476Y-47095D02*
X2625619Y-47095D01*
X2637048Y-87095D02*
X2637048Y-47095D01*
X2614190Y-50905D02*
X2612286Y-49000D01*
X2608476Y-47095D01*
X2598952Y-47095D01*
X2595143Y-49000D01*
X2593238Y-50905D01*
X2591333Y-54714D01*
X2591333Y-58524D01*
X2593238Y-64238D01*
X2616095Y-87095D01*
X2591333Y-87095D01*
X2348476Y-51095D02*
X2325619Y-51095D01*
X2337048Y-91095D02*
X2337048Y-51095D01*
X2291333Y-91095D02*
X2314190Y-91095D01*
X2302762Y-91095D02*
X2302762Y-51095D01*
X2306571Y-56809D01*
X2310381Y-60619D01*
X2314190Y-62524D01*
D11*
X508000Y-2470000D02*
X488000Y-2470000D01*
X77000Y-2555000D02*
X77000Y-2065000D01*
X77000Y-2065000D02*
X427000Y-2065000D01*
X227000Y-2616000D02*
X227000Y-2555000D01*
X127000Y-2300000D02*
X77000Y-2300000D01*
X488000Y-2360000D02*
X427000Y-2360000D01*
X427000Y-2555000D02*
X77000Y-2555000D01*
X488000Y-2440000D02*
X508000Y-2440000D01*
X488000Y-2616000D02*
X16000Y-2616000D01*
X488000Y-2004000D02*
X488000Y-2616000D01*
X427000Y-2360000D02*
X427000Y-2555000D01*
X227000Y-2004000D02*
X227000Y-2065000D01*
X427000Y-2065000D02*
X427000Y-2260000D01*
X357000Y-2616000D02*
X357000Y-2555000D01*
X77000Y-2310000D02*
X127000Y-2310000D01*
X127000Y-2320000D02*
X127000Y-2300000D01*
X16000Y-2004000D02*
X488000Y-2004000D01*
X498000Y-2440000D02*
X498000Y-2470000D01*
X427000Y-2260000D02*
X488000Y-2260000D01*
X518000Y-2646000D02*
X393000Y-2646000D01*
X518000Y-2521000D02*
X518000Y-2646000D01*
X16000Y-2616000D02*
X16000Y-2004000D01*
X357000Y-2004000D02*
X357000Y-2065000D01*
X508000Y-2440000D02*
X508000Y-2470000D01*
X77000Y-2320000D02*
X127000Y-2320000D01*
X435000Y-1074000D02*
X435000Y-1112000D01*
X258000Y-1836000D02*
X435000Y-1836000D01*
X435000Y-1074000D02*
X258000Y-1074000D01*
X435000Y-1836000D02*
X435000Y-1798000D01*
X4320000Y-200000D02*
G75*
G03*
X4320000Y-200000I-120000J0D01*
G01*
X4020000Y-200000D02*
G75*
G03*
X4020000Y-200000I-120000J0D01*
G01*
X3720000Y-200000D02*
G75*
G03*
X3720000Y-200000I-120000J0D01*
G01*
X2620000Y-200000D02*
G75*
G03*
X2620000Y-200000I-120000J0D01*
G01*
X2320000Y-204000D02*
G75*
G03*
X2320000Y-204000I-120000J0D01*
G01*
%LPC*%
D12*
X307000Y-2410000D03*
D13*
X307000Y-2210000D03*
D14*
X1200000Y-2625000D03*
X3200000Y-275000D03*
D15*
X410000Y-1585000D03*
X410000Y-1520000D03*
X410000Y-1455000D03*
X410000Y-1390000D03*
X410000Y-1325000D03*
D16*
X94000Y-1570000D03*
D17*
X144000Y-1117500D03*
X144000Y-1792500D03*
D18*
X401500Y-1703750D03*
D19*
X94000Y-1342500D03*
D18*
X401500Y-1206250D03*
D20*
X4200000Y-200000D03*
X3900000Y-200000D03*
X3600000Y-200000D03*
X2500000Y-200000D03*
X2200000Y-204000D03*
D21*
X2900000Y-300000D03*
X2700000Y-300000D03*
X2700000Y-100000D03*
X800000Y-1800000D03*
X800000Y-2200000D03*
X800000Y-2000000D03*
X800000Y-2800000D03*
X800000Y-2400000D03*
X800000Y-2600000D03*
X3600000Y-2300000D03*
X3800000Y-2300000D03*
X3669000Y-2705000D03*
X3664000Y-2456000D03*
X1905304Y-2293388D03*
X1973100Y-2366830D03*
X67000Y-977000D03*
X78000Y-1941000D03*
X356000Y-699000D03*
X635000Y-553000D03*
X1141000Y-234000D03*
X992000Y-234000D03*
X1003000Y-709000D03*
X683000Y-881000D03*
X278000Y-1585000D03*
X928000Y-1263000D03*
X2726000Y-1833000D03*
X2322000Y-1845000D03*
X1536000Y-1052000D03*
X2325000Y-1053000D03*
X1533000Y-1844000D03*
X1741000Y-1511000D03*
X2779000Y-1310000D03*
X2779000Y-1510000D03*
X4100000Y-600000D03*
X4100000Y-400000D03*
X4300000Y-400000D03*
X4300000Y-600000D03*
X2900000Y-100000D03*
X2404305Y-2800000D03*
X2900000Y-2800000D03*
X1600000Y-2800000D03*
X2000000Y-2800000D03*
X2210604Y-2800000D03*
X1800000Y-2800000D03*
X3800000Y-1450000D03*
X3600000Y-1250000D03*
X3600000Y-1650000D03*
X3600000Y-1450000D03*
X3400000Y-1450000D03*
X3800000Y-1250000D03*
X3800000Y-1650000D03*
X3400000Y-1650000D03*
X3400000Y-1250000D03*
X2027000Y-1510000D03*
X1782000Y-1233000D03*
X3046000Y-1031000D03*
X2471000Y-2091350D03*
X3783000Y-2117000D03*
X2537000Y-1307000D03*
X2202000Y-897000D03*
X2138000Y-2530000D03*
X2341000Y-2091350D03*
X1430000Y-2176000D03*
X1879000Y-1724000D03*
X1437269Y-2275686D03*
X1876000Y-1624000D03*
X1891650Y-2115039D03*
X3057000Y-1980000D03*
X1681631Y-2051531D03*
X3250000Y-1504000D03*
X1781550Y-2054030D03*
X3223000Y-1645000D03*
X2619000Y-1722000D03*
X2619000Y-1159000D03*
X2116000Y-1201000D03*
X2004000Y-1193000D03*
X2121176Y-635364D03*
X1495000Y-521000D03*
X2085000Y-423000D03*
X552998Y-1550002D03*
X556000Y-1362000D03*
X927750Y-1642750D03*
X2199000Y-1399000D03*
X2186000Y-1287000D03*
M02*
