G04 #@! TF.GenerationSoftware,KiCad,Pcbnew,6.0.11-2627ca5db0~126~ubuntu22.04.1*
G04 #@! TF.CreationDate,2023-11-29T16:22:24+00:00*
G04 #@! TF.ProjectId,GeoLoc,47656f4c-6f63-42e6-9b69-6361645f7063,rev?*
G04 #@! TF.SameCoordinates,PX44794c0PY22243c0*
G04 #@! TF.FileFunction,Soldermask,Bot*
G04 #@! TF.FilePolarity,Negative*
%FSLAX45Y45*%
G04 Gerber Fmt 4.5, Leading zero omitted, Abs format (unit mm)*
G04 Created by KiCad (PCBNEW 6.0.11-2627ca5db0~126~ubuntu22.04.1) date 2023-11-29 16:22:24*
%MOMM*%
%LPD*%
G01*
G04 APERTURE LIST*
G04 Aperture macros list*
%AMRoundRect*
0 Rectangle with rounded corners*
0 $1 Rounding radius*
0 $2 $3 $4 $5 $6 $7 $8 $9 X,Y pos of 4 corners*
0 Add a 4 corners polygon primitive as box body*
4,1,4,$2,$3,$4,$5,$6,$7,$8,$9,$2,$3,0*
0 Add four circle primitives for the rounded corners*
1,1,$1+$1,$2,$3*
1,1,$1+$1,$4,$5*
1,1,$1+$1,$6,$7*
1,1,$1+$1,$8,$9*
0 Add four rect primitives between the rounded corners*
20,1,$1+$1,$2,$3,$4,$5,0*
20,1,$1+$1,$4,$5,$6,$7,0*
20,1,$1+$1,$6,$7,$8,$9,0*
20,1,$1+$1,$8,$9,$2,$3,0*%
G04 Aperture macros list end*
%ADD10RoundRect,0.250000X0.625000X-0.350000X0.625000X0.350000X-0.625000X0.350000X-0.625000X-0.350000X0*%
%ADD11O,1.750000X1.200000*%
%ADD12C,4.400000*%
%ADD13R,1.380000X0.450000*%
%ADD14R,0.900000X1.800000*%
%ADD15R,1.300000X1.650000*%
%ADD16R,1.550000X1.425000*%
%ADD17R,0.900000X1.750000*%
%ADD18C,2.000000*%
%ADD19C,0.400000*%
G04 APERTURE END LIST*
D10*
X307000Y-2410000D03*
D11*
X307000Y-2210000D03*
D12*
X1200000Y-2625000D03*
X3200000Y-275000D03*
D13*
X410000Y-1585000D03*
X410000Y-1520000D03*
X410000Y-1455000D03*
X410000Y-1390000D03*
X410000Y-1325000D03*
D14*
X94000Y-1570000D03*
D15*
X144000Y-1117500D03*
X144000Y-1792500D03*
D16*
X401500Y-1703750D03*
D17*
X94000Y-1342500D03*
D16*
X401500Y-1206250D03*
D18*
X4200000Y-200000D03*
X3900000Y-200000D03*
X3600000Y-200000D03*
X2500000Y-200000D03*
X2200000Y-204000D03*
D19*
X2900000Y-300000D03*
X2700000Y-300000D03*
X2700000Y-100000D03*
X800000Y-1800000D03*
X800000Y-2200000D03*
X800000Y-2000000D03*
X800000Y-2800000D03*
X800000Y-2400000D03*
X800000Y-2600000D03*
X3600000Y-2300000D03*
X3800000Y-2300000D03*
X3669000Y-2705000D03*
X3664000Y-2456000D03*
X1905304Y-2293388D03*
X1973100Y-2366830D03*
X67000Y-977000D03*
X78000Y-1941000D03*
X356000Y-699000D03*
X635000Y-553000D03*
X1141000Y-234000D03*
X992000Y-234000D03*
X1003000Y-709000D03*
X683000Y-881000D03*
X278000Y-1585000D03*
X928000Y-1263000D03*
X2726000Y-1833000D03*
X2322000Y-1845000D03*
X1536000Y-1052000D03*
X2325000Y-1053000D03*
X1533000Y-1844000D03*
X1741000Y-1511000D03*
X2779000Y-1310000D03*
X2779000Y-1510000D03*
X4100000Y-600000D03*
X4100000Y-400000D03*
X4300000Y-400000D03*
X4300000Y-600000D03*
X2900000Y-100000D03*
X2404305Y-2800000D03*
X2900000Y-2800000D03*
X1600000Y-2800000D03*
X2000000Y-2800000D03*
X2210604Y-2800000D03*
X1800000Y-2800000D03*
X3800000Y-1450000D03*
X3600000Y-1250000D03*
X3600000Y-1650000D03*
X3600000Y-1450000D03*
X3400000Y-1450000D03*
X3800000Y-1250000D03*
X3800000Y-1650000D03*
X3400000Y-1650000D03*
X3400000Y-1250000D03*
X2027000Y-1510000D03*
X1782000Y-1233000D03*
X3046000Y-1031000D03*
X2471000Y-2091350D03*
X3783000Y-2117000D03*
X2537000Y-1307000D03*
X2202000Y-897000D03*
X2138000Y-2530000D03*
X2341000Y-2091350D03*
X1430000Y-2176000D03*
X1879000Y-1724000D03*
X1437269Y-2275686D03*
X1876000Y-1624000D03*
X1891650Y-2115039D03*
X3057000Y-1980000D03*
X1681631Y-2051531D03*
X3250000Y-1504000D03*
X1781550Y-2054030D03*
X3223000Y-1645000D03*
X2619000Y-1722000D03*
X2619000Y-1159000D03*
X2116000Y-1201000D03*
X2004000Y-1193000D03*
X2121176Y-635364D03*
X1495000Y-521000D03*
X2085000Y-423000D03*
X552998Y-1550002D03*
X556000Y-1362000D03*
X927750Y-1642750D03*
X2199000Y-1399000D03*
X2186000Y-1287000D03*
M02*
